<mxfile host="app.diagrams.net" agent="Mozilla/5.0 (X11; Linux x86_64) AppleWebKit/537.36 (KHTML, like Gecko) Chrome/129.0.0.0 Safari/537.36" version="24.7.16">
  <diagram name="Page-1" id="RSAMKe3ODM5QiiuvN1xH">
    <mxGraphModel grid="1" page="1" gridSize="10" guides="1" tooltips="1" connect="1" arrows="1" fold="1" pageScale="1" pageWidth="850" pageHeight="1100" math="0" shadow="0">
      <root>
        <mxCell id="0" />
        <mxCell id="1" parent="0" />
        <mxCell id="w_6Gt5Wecr9yxxaRGXFA-1" value="&lt;font color=&quot;#40427d&quot;&gt;Armamento&lt;/font&gt;" style="shape=table;startSize=30;container=1;collapsible=1;childLayout=tableLayout;fixedRows=1;rowLines=0;fontStyle=1;align=center;resizeLast=1;html=1;whiteSpace=wrap;fillColor=#ADB3FF;strokeColor=#40427D;" vertex="1" parent="1">
          <mxGeometry x="160" y="990" width="220" height="90" as="geometry" />
        </mxCell>
        <mxCell id="w_6Gt5Wecr9yxxaRGXFA-2" value="" style="shape=tableRow;horizontal=0;startSize=0;swimlaneHead=0;swimlaneBody=0;fillColor=none;collapsible=0;dropTarget=0;points=[[0,0.5],[1,0.5]];portConstraint=eastwest;top=0;left=0;right=0;bottom=0;html=1;strokeColor=#40427D;" vertex="1" parent="w_6Gt5Wecr9yxxaRGXFA-1">
          <mxGeometry y="30" width="220" height="30" as="geometry" />
        </mxCell>
        <mxCell id="w_6Gt5Wecr9yxxaRGXFA-3" value="&lt;font color=&quot;#40427d&quot;&gt;PK&lt;/font&gt;" style="shape=partialRectangle;connectable=0;fillColor=none;top=0;left=0;bottom=0;right=0;fontStyle=1;overflow=hidden;html=1;whiteSpace=wrap;strokeColor=#40427D;" vertex="1" parent="w_6Gt5Wecr9yxxaRGXFA-2">
          <mxGeometry width="60" height="30" as="geometry">
            <mxRectangle width="60" height="30" as="alternateBounds" />
          </mxGeometry>
        </mxCell>
        <mxCell id="w_6Gt5Wecr9yxxaRGXFA-4" value="&lt;font color=&quot;#40427d&quot;&gt;NúmeroNave: int&lt;/font&gt;" style="shape=partialRectangle;connectable=0;fillColor=none;top=0;left=0;bottom=0;right=0;align=left;spacingLeft=6;fontStyle=5;overflow=hidden;html=1;whiteSpace=wrap;strokeColor=#40427D;" vertex="1" parent="w_6Gt5Wecr9yxxaRGXFA-2">
          <mxGeometry x="60" width="160" height="30" as="geometry">
            <mxRectangle width="160" height="30" as="alternateBounds" />
          </mxGeometry>
        </mxCell>
        <mxCell id="w_6Gt5Wecr9yxxaRGXFA-5" value="" style="shape=tableRow;horizontal=0;startSize=0;swimlaneHead=0;swimlaneBody=0;fillColor=none;collapsible=0;dropTarget=0;points=[[0,0.5],[1,0.5]];portConstraint=eastwest;top=0;left=0;right=0;bottom=1;html=1;strokeColor=#40427D;" vertex="1" parent="w_6Gt5Wecr9yxxaRGXFA-1">
          <mxGeometry y="60" width="220" height="30" as="geometry" />
        </mxCell>
        <mxCell id="w_6Gt5Wecr9yxxaRGXFA-6" value="&lt;font color=&quot;#40427d&quot;&gt;PK&lt;/font&gt;" style="shape=partialRectangle;connectable=0;fillColor=none;top=0;left=0;bottom=0;right=0;fontStyle=1;overflow=hidden;html=1;whiteSpace=wrap;strokeColor=#40427D;" vertex="1" parent="w_6Gt5Wecr9yxxaRGXFA-5">
          <mxGeometry width="60" height="30" as="geometry">
            <mxRectangle width="60" height="30" as="alternateBounds" />
          </mxGeometry>
        </mxCell>
        <mxCell id="w_6Gt5Wecr9yxxaRGXFA-7" value="&lt;font color=&quot;#40427d&quot;&gt;Armamento: varchar(100)&lt;/font&gt;" style="shape=partialRectangle;connectable=0;fillColor=none;top=0;left=0;bottom=0;right=0;align=left;spacingLeft=6;fontStyle=5;overflow=hidden;html=1;whiteSpace=wrap;strokeColor=#40427D;" vertex="1" parent="w_6Gt5Wecr9yxxaRGXFA-5">
          <mxGeometry x="60" width="160" height="30" as="geometry">
            <mxRectangle width="160" height="30" as="alternateBounds" />
          </mxGeometry>
        </mxCell>
        <mxCell id="w_6Gt5Wecr9yxxaRGXFA-27" value="&lt;font color=&quot;#40427d&quot;&gt;Destructor&lt;/font&gt;" style="shape=table;startSize=30;container=1;collapsible=1;childLayout=tableLayout;fixedRows=1;rowLines=0;fontStyle=1;align=center;resizeLast=1;html=1;fillColor=#ADB3FF;strokeColor=#40427D;" vertex="1" parent="1">
          <mxGeometry x="-70" y="790" width="180" height="150" as="geometry" />
        </mxCell>
        <mxCell id="w_6Gt5Wecr9yxxaRGXFA-28" value="" style="shape=tableRow;horizontal=0;startSize=0;swimlaneHead=0;swimlaneBody=0;fillColor=none;collapsible=0;dropTarget=0;points=[[0,0.5],[1,0.5]];portConstraint=eastwest;top=0;left=0;right=0;bottom=1;strokeColor=#40427D;" vertex="1" parent="w_6Gt5Wecr9yxxaRGXFA-27">
          <mxGeometry y="30" width="180" height="30" as="geometry" />
        </mxCell>
        <mxCell id="w_6Gt5Wecr9yxxaRGXFA-29" value="&lt;font color=&quot;#40427d&quot;&gt;PK&lt;/font&gt;" style="shape=partialRectangle;connectable=0;fillColor=none;top=0;left=0;bottom=0;right=0;fontStyle=1;overflow=hidden;whiteSpace=wrap;html=1;strokeColor=#40427D;" vertex="1" parent="w_6Gt5Wecr9yxxaRGXFA-28">
          <mxGeometry width="30" height="30" as="geometry">
            <mxRectangle width="30" height="30" as="alternateBounds" />
          </mxGeometry>
        </mxCell>
        <mxCell id="w_6Gt5Wecr9yxxaRGXFA-30" value="&lt;span style=&quot;color: rgb(64, 66, 125);&quot;&gt;NúmeroNave: int&lt;/span&gt;" style="shape=partialRectangle;connectable=0;fillColor=none;top=0;left=0;bottom=0;right=0;align=left;spacingLeft=6;fontStyle=5;overflow=hidden;whiteSpace=wrap;html=1;strokeColor=#40427D;" vertex="1" parent="w_6Gt5Wecr9yxxaRGXFA-28">
          <mxGeometry x="30" width="150" height="30" as="geometry">
            <mxRectangle width="150" height="30" as="alternateBounds" />
          </mxGeometry>
        </mxCell>
        <mxCell id="w_6Gt5Wecr9yxxaRGXFA-31" value="" style="shape=tableRow;horizontal=0;startSize=0;swimlaneHead=0;swimlaneBody=0;fillColor=none;collapsible=0;dropTarget=0;points=[[0,0.5],[1,0.5]];portConstraint=eastwest;top=0;left=0;right=0;bottom=0;strokeColor=#40427D;" vertex="1" parent="w_6Gt5Wecr9yxxaRGXFA-27">
          <mxGeometry y="60" width="180" height="30" as="geometry" />
        </mxCell>
        <mxCell id="w_6Gt5Wecr9yxxaRGXFA-32" value="" style="shape=partialRectangle;connectable=0;fillColor=none;top=0;left=0;bottom=0;right=0;editable=1;overflow=hidden;whiteSpace=wrap;html=1;strokeColor=#40427D;" vertex="1" parent="w_6Gt5Wecr9yxxaRGXFA-31">
          <mxGeometry width="30" height="30" as="geometry">
            <mxRectangle width="30" height="30" as="alternateBounds" />
          </mxGeometry>
        </mxCell>
        <mxCell id="w_6Gt5Wecr9yxxaRGXFA-33" value="&lt;font color=&quot;#40427d&quot;&gt;CapVuelo: int&lt;/font&gt;" style="shape=partialRectangle;connectable=0;fillColor=none;top=0;left=0;bottom=0;right=0;align=left;spacingLeft=6;overflow=hidden;whiteSpace=wrap;html=1;strokeColor=#40427D;" vertex="1" parent="w_6Gt5Wecr9yxxaRGXFA-31">
          <mxGeometry x="30" width="150" height="30" as="geometry">
            <mxRectangle width="150" height="30" as="alternateBounds" />
          </mxGeometry>
        </mxCell>
        <mxCell id="w_6Gt5Wecr9yxxaRGXFA-34" value="" style="shape=tableRow;horizontal=0;startSize=0;swimlaneHead=0;swimlaneBody=0;fillColor=none;collapsible=0;dropTarget=0;points=[[0,0.5],[1,0.5]];portConstraint=eastwest;top=0;left=0;right=0;bottom=0;strokeColor=#40427D;" vertex="1" parent="w_6Gt5Wecr9yxxaRGXFA-27">
          <mxGeometry y="90" width="180" height="30" as="geometry" />
        </mxCell>
        <mxCell id="w_6Gt5Wecr9yxxaRGXFA-35" value="" style="shape=partialRectangle;connectable=0;fillColor=none;top=0;left=0;bottom=0;right=0;editable=1;overflow=hidden;whiteSpace=wrap;html=1;strokeColor=#40427D;" vertex="1" parent="w_6Gt5Wecr9yxxaRGXFA-34">
          <mxGeometry width="30" height="30" as="geometry">
            <mxRectangle width="30" height="30" as="alternateBounds" />
          </mxGeometry>
        </mxCell>
        <mxCell id="w_6Gt5Wecr9yxxaRGXFA-36" value="&lt;font color=&quot;#40427d&quot;&gt;Fabricante: varchar(50)&lt;/font&gt;" style="shape=partialRectangle;connectable=0;fillColor=none;top=0;left=0;bottom=0;right=0;align=left;spacingLeft=6;overflow=hidden;whiteSpace=wrap;html=1;strokeColor=#40427D;" vertex="1" parent="w_6Gt5Wecr9yxxaRGXFA-34">
          <mxGeometry x="30" width="150" height="30" as="geometry">
            <mxRectangle width="150" height="30" as="alternateBounds" />
          </mxGeometry>
        </mxCell>
        <mxCell id="w_6Gt5Wecr9yxxaRGXFA-56" value="" style="shape=tableRow;horizontal=0;startSize=0;swimlaneHead=0;swimlaneBody=0;fillColor=none;collapsible=0;dropTarget=0;points=[[0,0.5],[1,0.5]];portConstraint=eastwest;top=0;left=0;right=0;bottom=0;strokeColor=#40427D;" vertex="1" parent="w_6Gt5Wecr9yxxaRGXFA-27">
          <mxGeometry y="120" width="180" height="30" as="geometry" />
        </mxCell>
        <mxCell id="w_6Gt5Wecr9yxxaRGXFA-57" value="" style="shape=partialRectangle;connectable=0;fillColor=none;top=0;left=0;bottom=0;right=0;editable=1;overflow=hidden;whiteSpace=wrap;html=1;strokeColor=#40427D;" vertex="1" parent="w_6Gt5Wecr9yxxaRGXFA-56">
          <mxGeometry width="30" height="30" as="geometry">
            <mxRectangle width="30" height="30" as="alternateBounds" />
          </mxGeometry>
        </mxCell>
        <mxCell id="w_6Gt5Wecr9yxxaRGXFA-58" value="&lt;font color=&quot;#40427d&quot;&gt;Modelo: varchar(50)&lt;/font&gt;" style="shape=partialRectangle;connectable=0;fillColor=none;top=0;left=0;bottom=0;right=0;align=left;spacingLeft=6;overflow=hidden;whiteSpace=wrap;html=1;strokeColor=#40427D;" vertex="1" parent="w_6Gt5Wecr9yxxaRGXFA-56">
          <mxGeometry x="30" width="150" height="30" as="geometry">
            <mxRectangle width="150" height="30" as="alternateBounds" />
          </mxGeometry>
        </mxCell>
        <mxCell id="w_6Gt5Wecr9yxxaRGXFA-62" value="&lt;font color=&quot;#40427d&quot;&gt;Reconocimiento&lt;/font&gt;" style="shape=table;startSize=30;container=1;collapsible=1;childLayout=tableLayout;fixedRows=1;rowLines=0;fontStyle=1;align=center;resizeLast=1;html=1;fillColor=#ADB3FF;strokeColor=#40427D;" vertex="1" parent="1">
          <mxGeometry x="180" y="790" width="180" height="120" as="geometry" />
        </mxCell>
        <mxCell id="w_6Gt5Wecr9yxxaRGXFA-63" value="" style="shape=tableRow;horizontal=0;startSize=0;swimlaneHead=0;swimlaneBody=0;fillColor=none;collapsible=0;dropTarget=0;points=[[0,0.5],[1,0.5]];portConstraint=eastwest;top=0;left=0;right=0;bottom=1;strokeColor=#40427D;" vertex="1" parent="w_6Gt5Wecr9yxxaRGXFA-62">
          <mxGeometry y="30" width="180" height="30" as="geometry" />
        </mxCell>
        <mxCell id="w_6Gt5Wecr9yxxaRGXFA-64" value="&lt;font color=&quot;#40427d&quot;&gt;PK&lt;/font&gt;" style="shape=partialRectangle;connectable=0;fillColor=none;top=0;left=0;bottom=0;right=0;fontStyle=1;overflow=hidden;whiteSpace=wrap;html=1;strokeColor=#40427D;" vertex="1" parent="w_6Gt5Wecr9yxxaRGXFA-63">
          <mxGeometry width="30" height="30" as="geometry">
            <mxRectangle width="30" height="30" as="alternateBounds" />
          </mxGeometry>
        </mxCell>
        <mxCell id="w_6Gt5Wecr9yxxaRGXFA-65" value="&lt;span style=&quot;color: rgb(64, 66, 125);&quot;&gt;NúmeroNave: int&lt;/span&gt;" style="shape=partialRectangle;connectable=0;fillColor=none;top=0;left=0;bottom=0;right=0;align=left;spacingLeft=6;fontStyle=5;overflow=hidden;whiteSpace=wrap;html=1;strokeColor=#40427D;" vertex="1" parent="w_6Gt5Wecr9yxxaRGXFA-63">
          <mxGeometry x="30" width="150" height="30" as="geometry">
            <mxRectangle width="150" height="30" as="alternateBounds" />
          </mxGeometry>
        </mxCell>
        <mxCell id="w_6Gt5Wecr9yxxaRGXFA-66" value="" style="shape=tableRow;horizontal=0;startSize=0;swimlaneHead=0;swimlaneBody=0;fillColor=none;collapsible=0;dropTarget=0;points=[[0,0.5],[1,0.5]];portConstraint=eastwest;top=0;left=0;right=0;bottom=0;strokeColor=#40427D;" vertex="1" parent="w_6Gt5Wecr9yxxaRGXFA-62">
          <mxGeometry y="60" width="180" height="30" as="geometry" />
        </mxCell>
        <mxCell id="w_6Gt5Wecr9yxxaRGXFA-67" value="" style="shape=partialRectangle;connectable=0;fillColor=none;top=0;left=0;bottom=0;right=0;editable=1;overflow=hidden;whiteSpace=wrap;html=1;strokeColor=#40427D;" vertex="1" parent="w_6Gt5Wecr9yxxaRGXFA-66">
          <mxGeometry width="30" height="30" as="geometry">
            <mxRectangle width="30" height="30" as="alternateBounds" />
          </mxGeometry>
        </mxCell>
        <mxCell id="w_6Gt5Wecr9yxxaRGXFA-68" value="&lt;font color=&quot;#40427d&quot;&gt;CapVuelo: int&lt;/font&gt;" style="shape=partialRectangle;connectable=0;fillColor=none;top=0;left=0;bottom=0;right=0;align=left;spacingLeft=6;overflow=hidden;whiteSpace=wrap;html=1;strokeColor=#40427D;" vertex="1" parent="w_6Gt5Wecr9yxxaRGXFA-66">
          <mxGeometry x="30" width="150" height="30" as="geometry">
            <mxRectangle width="150" height="30" as="alternateBounds" />
          </mxGeometry>
        </mxCell>
        <mxCell id="w_6Gt5Wecr9yxxaRGXFA-69" value="" style="shape=tableRow;horizontal=0;startSize=0;swimlaneHead=0;swimlaneBody=0;fillColor=none;collapsible=0;dropTarget=0;points=[[0,0.5],[1,0.5]];portConstraint=eastwest;top=0;left=0;right=0;bottom=0;strokeColor=#40427D;" vertex="1" parent="w_6Gt5Wecr9yxxaRGXFA-62">
          <mxGeometry y="90" width="180" height="30" as="geometry" />
        </mxCell>
        <mxCell id="w_6Gt5Wecr9yxxaRGXFA-70" value="" style="shape=partialRectangle;connectable=0;fillColor=none;top=0;left=0;bottom=0;right=0;editable=1;overflow=hidden;whiteSpace=wrap;html=1;strokeColor=#40427D;" vertex="1" parent="w_6Gt5Wecr9yxxaRGXFA-69">
          <mxGeometry width="30" height="30" as="geometry">
            <mxRectangle width="30" height="30" as="alternateBounds" />
          </mxGeometry>
        </mxCell>
        <mxCell id="w_6Gt5Wecr9yxxaRGXFA-71" value="&lt;font color=&quot;#40427d&quot;&gt;Clase: varchar(50)&lt;/font&gt;" style="shape=partialRectangle;connectable=0;fillColor=none;top=0;left=0;bottom=0;right=0;align=left;spacingLeft=6;overflow=hidden;whiteSpace=wrap;html=1;strokeColor=#40427D;" vertex="1" parent="w_6Gt5Wecr9yxxaRGXFA-69">
          <mxGeometry x="30" width="150" height="30" as="geometry">
            <mxRectangle width="150" height="30" as="alternateBounds" />
          </mxGeometry>
        </mxCell>
        <mxCell id="w_6Gt5Wecr9yxxaRGXFA-85" value="&lt;font color=&quot;#40427d&quot;&gt;Caza&lt;/font&gt;" style="shape=table;startSize=30;container=1;collapsible=1;childLayout=tableLayout;fixedRows=1;rowLines=0;fontStyle=1;align=center;resizeLast=1;html=1;fillColor=#ADB3FF;strokeColor=#40427D;" vertex="1" parent="1">
          <mxGeometry x="420" y="790" width="180" height="150" as="geometry" />
        </mxCell>
        <mxCell id="w_6Gt5Wecr9yxxaRGXFA-86" value="" style="shape=tableRow;horizontal=0;startSize=0;swimlaneHead=0;swimlaneBody=0;fillColor=none;collapsible=0;dropTarget=0;points=[[0,0.5],[1,0.5]];portConstraint=eastwest;top=0;left=0;right=0;bottom=1;strokeColor=#40427D;" vertex="1" parent="w_6Gt5Wecr9yxxaRGXFA-85">
          <mxGeometry y="30" width="180" height="30" as="geometry" />
        </mxCell>
        <mxCell id="w_6Gt5Wecr9yxxaRGXFA-87" value="&lt;font color=&quot;#40427d&quot;&gt;PK&lt;/font&gt;" style="shape=partialRectangle;connectable=0;fillColor=none;top=0;left=0;bottom=0;right=0;fontStyle=1;overflow=hidden;whiteSpace=wrap;html=1;strokeColor=#40427D;" vertex="1" parent="w_6Gt5Wecr9yxxaRGXFA-86">
          <mxGeometry width="30" height="30" as="geometry">
            <mxRectangle width="30" height="30" as="alternateBounds" />
          </mxGeometry>
        </mxCell>
        <mxCell id="w_6Gt5Wecr9yxxaRGXFA-88" value="&lt;span style=&quot;color: rgb(64, 66, 125);&quot;&gt;NúmeroNave: int&lt;/span&gt;" style="shape=partialRectangle;connectable=0;fillColor=none;top=0;left=0;bottom=0;right=0;align=left;spacingLeft=6;fontStyle=5;overflow=hidden;whiteSpace=wrap;html=1;strokeColor=#40427D;" vertex="1" parent="w_6Gt5Wecr9yxxaRGXFA-86">
          <mxGeometry x="30" width="150" height="30" as="geometry">
            <mxRectangle width="150" height="30" as="alternateBounds" />
          </mxGeometry>
        </mxCell>
        <mxCell id="w_6Gt5Wecr9yxxaRGXFA-89" value="" style="shape=tableRow;horizontal=0;startSize=0;swimlaneHead=0;swimlaneBody=0;fillColor=none;collapsible=0;dropTarget=0;points=[[0,0.5],[1,0.5]];portConstraint=eastwest;top=0;left=0;right=0;bottom=0;strokeColor=#40427D;" vertex="1" parent="w_6Gt5Wecr9yxxaRGXFA-85">
          <mxGeometry y="60" width="180" height="30" as="geometry" />
        </mxCell>
        <mxCell id="w_6Gt5Wecr9yxxaRGXFA-90" value="" style="shape=partialRectangle;connectable=0;fillColor=none;top=0;left=0;bottom=0;right=0;editable=1;overflow=hidden;whiteSpace=wrap;html=1;strokeColor=#40427D;" vertex="1" parent="w_6Gt5Wecr9yxxaRGXFA-89">
          <mxGeometry width="30" height="30" as="geometry">
            <mxRectangle width="30" height="30" as="alternateBounds" />
          </mxGeometry>
        </mxCell>
        <mxCell id="w_6Gt5Wecr9yxxaRGXFA-91" value="&lt;font color=&quot;#40427d&quot;&gt;CapVuelo: int&lt;/font&gt;" style="shape=partialRectangle;connectable=0;fillColor=none;top=0;left=0;bottom=0;right=0;align=left;spacingLeft=6;overflow=hidden;whiteSpace=wrap;html=1;strokeColor=#40427D;" vertex="1" parent="w_6Gt5Wecr9yxxaRGXFA-89">
          <mxGeometry x="30" width="150" height="30" as="geometry">
            <mxRectangle width="150" height="30" as="alternateBounds" />
          </mxGeometry>
        </mxCell>
        <mxCell id="w_6Gt5Wecr9yxxaRGXFA-92" value="" style="shape=tableRow;horizontal=0;startSize=0;swimlaneHead=0;swimlaneBody=0;fillColor=none;collapsible=0;dropTarget=0;points=[[0,0.5],[1,0.5]];portConstraint=eastwest;top=0;left=0;right=0;bottom=0;strokeColor=#40427D;" vertex="1" parent="w_6Gt5Wecr9yxxaRGXFA-85">
          <mxGeometry y="90" width="180" height="30" as="geometry" />
        </mxCell>
        <mxCell id="w_6Gt5Wecr9yxxaRGXFA-93" value="" style="shape=partialRectangle;connectable=0;fillColor=none;top=0;left=0;bottom=0;right=0;editable=1;overflow=hidden;whiteSpace=wrap;html=1;strokeColor=#40427D;" vertex="1" parent="w_6Gt5Wecr9yxxaRGXFA-92">
          <mxGeometry width="30" height="30" as="geometry">
            <mxRectangle width="30" height="30" as="alternateBounds" />
          </mxGeometry>
        </mxCell>
        <mxCell id="w_6Gt5Wecr9yxxaRGXFA-94" value="&lt;font color=&quot;#40427d&quot;&gt;Función: varchar(50)&lt;/font&gt;" style="shape=partialRectangle;connectable=0;fillColor=none;top=0;left=0;bottom=0;right=0;align=left;spacingLeft=6;overflow=hidden;whiteSpace=wrap;html=1;strokeColor=#40427D;" vertex="1" parent="w_6Gt5Wecr9yxxaRGXFA-92">
          <mxGeometry x="30" width="150" height="30" as="geometry">
            <mxRectangle width="150" height="30" as="alternateBounds" />
          </mxGeometry>
        </mxCell>
        <mxCell id="w_6Gt5Wecr9yxxaRGXFA-95" value="" style="shape=tableRow;horizontal=0;startSize=0;swimlaneHead=0;swimlaneBody=0;fillColor=none;collapsible=0;dropTarget=0;points=[[0,0.5],[1,0.5]];portConstraint=eastwest;top=0;left=0;right=0;bottom=0;strokeColor=#40427D;" vertex="1" parent="w_6Gt5Wecr9yxxaRGXFA-85">
          <mxGeometry y="120" width="180" height="30" as="geometry" />
        </mxCell>
        <mxCell id="w_6Gt5Wecr9yxxaRGXFA-96" value="" style="shape=partialRectangle;connectable=0;fillColor=none;top=0;left=0;bottom=0;right=0;editable=1;overflow=hidden;whiteSpace=wrap;html=1;strokeColor=#40427D;" vertex="1" parent="w_6Gt5Wecr9yxxaRGXFA-95">
          <mxGeometry width="30" height="30" as="geometry">
            <mxRectangle width="30" height="30" as="alternateBounds" />
          </mxGeometry>
        </mxCell>
        <mxCell id="w_6Gt5Wecr9yxxaRGXFA-97" value="&lt;font color=&quot;#40427d&quot;&gt;Aceleración: int&lt;/font&gt;" style="shape=partialRectangle;connectable=0;fillColor=none;top=0;left=0;bottom=0;right=0;align=left;spacingLeft=6;overflow=hidden;whiteSpace=wrap;html=1;strokeColor=#40427D;" vertex="1" parent="w_6Gt5Wecr9yxxaRGXFA-95">
          <mxGeometry x="30" width="150" height="30" as="geometry">
            <mxRectangle width="150" height="30" as="alternateBounds" />
          </mxGeometry>
        </mxCell>
        <mxCell id="w_6Gt5Wecr9yxxaRGXFA-98" value="&lt;font color=&quot;#40427d&quot;&gt;Nivel&lt;/font&gt;" style="shape=table;startSize=30;container=1;collapsible=1;childLayout=tableLayout;fixedRows=1;rowLines=0;fontStyle=1;align=center;resizeLast=1;html=1;fillColor=#ADB3FF;strokeColor=#40427D;" vertex="1" parent="1">
          <mxGeometry x="180" y="400" width="180" height="150" as="geometry" />
        </mxCell>
        <mxCell id="w_6Gt5Wecr9yxxaRGXFA-99" value="" style="shape=tableRow;horizontal=0;startSize=0;swimlaneHead=0;swimlaneBody=0;fillColor=none;collapsible=0;dropTarget=0;points=[[0,0.5],[1,0.5]];portConstraint=eastwest;top=0;left=0;right=0;bottom=1;strokeColor=#40427D;" vertex="1" parent="w_6Gt5Wecr9yxxaRGXFA-98">
          <mxGeometry y="30" width="180" height="30" as="geometry" />
        </mxCell>
        <mxCell id="w_6Gt5Wecr9yxxaRGXFA-100" value="&lt;font color=&quot;#40427d&quot;&gt;PK&lt;/font&gt;" style="shape=partialRectangle;connectable=0;fillColor=none;top=0;left=0;bottom=0;right=0;fontStyle=1;overflow=hidden;whiteSpace=wrap;html=1;strokeColor=#40427D;" vertex="1" parent="w_6Gt5Wecr9yxxaRGXFA-99">
          <mxGeometry width="30" height="30" as="geometry">
            <mxRectangle width="30" height="30" as="alternateBounds" />
          </mxGeometry>
        </mxCell>
        <mxCell id="w_6Gt5Wecr9yxxaRGXFA-101" value="&lt;span style=&quot;color: rgb(64, 66, 125);&quot;&gt;NúmeroNivel: int&lt;/span&gt;" style="shape=partialRectangle;connectable=0;fillColor=none;top=0;left=0;bottom=0;right=0;align=left;spacingLeft=6;fontStyle=5;overflow=hidden;whiteSpace=wrap;html=1;strokeColor=#40427D;" vertex="1" parent="w_6Gt5Wecr9yxxaRGXFA-99">
          <mxGeometry x="30" width="150" height="30" as="geometry">
            <mxRectangle width="150" height="30" as="alternateBounds" />
          </mxGeometry>
        </mxCell>
        <mxCell id="w_6Gt5Wecr9yxxaRGXFA-102" value="" style="shape=tableRow;horizontal=0;startSize=0;swimlaneHead=0;swimlaneBody=0;fillColor=none;collapsible=0;dropTarget=0;points=[[0,0.5],[1,0.5]];portConstraint=eastwest;top=0;left=0;right=0;bottom=0;strokeColor=#40427D;" vertex="1" parent="w_6Gt5Wecr9yxxaRGXFA-98">
          <mxGeometry y="60" width="180" height="30" as="geometry" />
        </mxCell>
        <mxCell id="w_6Gt5Wecr9yxxaRGXFA-103" value="" style="shape=partialRectangle;connectable=0;fillColor=none;top=0;left=0;bottom=0;right=0;editable=1;overflow=hidden;whiteSpace=wrap;html=1;strokeColor=#40427D;" vertex="1" parent="w_6Gt5Wecr9yxxaRGXFA-102">
          <mxGeometry width="30" height="30" as="geometry">
            <mxRectangle width="30" height="30" as="alternateBounds" />
          </mxGeometry>
        </mxCell>
        <mxCell id="w_6Gt5Wecr9yxxaRGXFA-104" value="&lt;font color=&quot;#40427d&quot;&gt;Superficie: int&lt;/font&gt;" style="shape=partialRectangle;connectable=0;fillColor=none;top=0;left=0;bottom=0;right=0;align=left;spacingLeft=6;overflow=hidden;whiteSpace=wrap;html=1;strokeColor=#40427D;" vertex="1" parent="w_6Gt5Wecr9yxxaRGXFA-102">
          <mxGeometry x="30" width="150" height="30" as="geometry">
            <mxRectangle width="150" height="30" as="alternateBounds" />
          </mxGeometry>
        </mxCell>
        <mxCell id="w_6Gt5Wecr9yxxaRGXFA-105" value="" style="shape=tableRow;horizontal=0;startSize=0;swimlaneHead=0;swimlaneBody=0;fillColor=none;collapsible=0;dropTarget=0;points=[[0,0.5],[1,0.5]];portConstraint=eastwest;top=0;left=0;right=0;bottom=0;strokeColor=#40427D;" vertex="1" parent="w_6Gt5Wecr9yxxaRGXFA-98">
          <mxGeometry y="90" width="180" height="30" as="geometry" />
        </mxCell>
        <mxCell id="w_6Gt5Wecr9yxxaRGXFA-106" value="" style="shape=partialRectangle;connectable=0;fillColor=none;top=0;left=0;bottom=0;right=0;editable=1;overflow=hidden;whiteSpace=wrap;html=1;strokeColor=#40427D;" vertex="1" parent="w_6Gt5Wecr9yxxaRGXFA-105">
          <mxGeometry width="30" height="30" as="geometry">
            <mxRectangle width="30" height="30" as="alternateBounds" />
          </mxGeometry>
        </mxCell>
        <mxCell id="w_6Gt5Wecr9yxxaRGXFA-107" value="&lt;font color=&quot;#40427d&quot;&gt;Restringido: bool&lt;/font&gt;" style="shape=partialRectangle;connectable=0;fillColor=none;top=0;left=0;bottom=0;right=0;align=left;spacingLeft=6;overflow=hidden;whiteSpace=wrap;html=1;strokeColor=#40427D;" vertex="1" parent="w_6Gt5Wecr9yxxaRGXFA-105">
          <mxGeometry x="30" width="150" height="30" as="geometry">
            <mxRectangle width="150" height="30" as="alternateBounds" />
          </mxGeometry>
        </mxCell>
        <mxCell id="w_6Gt5Wecr9yxxaRGXFA-108" value="" style="shape=tableRow;horizontal=0;startSize=0;swimlaneHead=0;swimlaneBody=0;fillColor=none;collapsible=0;dropTarget=0;points=[[0,0.5],[1,0.5]];portConstraint=eastwest;top=0;left=0;right=0;bottom=0;strokeColor=#40427D;" vertex="1" parent="w_6Gt5Wecr9yxxaRGXFA-98">
          <mxGeometry y="120" width="180" height="30" as="geometry" />
        </mxCell>
        <mxCell id="w_6Gt5Wecr9yxxaRGXFA-109" value="" style="shape=partialRectangle;connectable=0;fillColor=none;top=0;left=0;bottom=0;right=0;editable=1;overflow=hidden;whiteSpace=wrap;html=1;strokeColor=#40427D;" vertex="1" parent="w_6Gt5Wecr9yxxaRGXFA-108">
          <mxGeometry width="30" height="30" as="geometry">
            <mxRectangle width="30" height="30" as="alternateBounds" />
          </mxGeometry>
        </mxCell>
        <mxCell id="w_6Gt5Wecr9yxxaRGXFA-110" value="&lt;font color=&quot;#40427d&quot;&gt;esHangar: bool&lt;/font&gt;" style="shape=partialRectangle;connectable=0;fillColor=none;top=0;left=0;bottom=0;right=0;align=left;spacingLeft=6;overflow=hidden;whiteSpace=wrap;html=1;strokeColor=#40427D;" vertex="1" parent="w_6Gt5Wecr9yxxaRGXFA-108">
          <mxGeometry x="30" width="150" height="30" as="geometry">
            <mxRectangle width="150" height="30" as="alternateBounds" />
          </mxGeometry>
        </mxCell>
        <mxCell id="w_6Gt5Wecr9yxxaRGXFA-114" value="&lt;font color=&quot;#40427d&quot;&gt;Sección&lt;/font&gt;" style="shape=table;startSize=30;container=1;collapsible=1;childLayout=tableLayout;fixedRows=1;rowLines=0;fontStyle=1;align=center;resizeLast=1;html=1;whiteSpace=wrap;fillColor=#ADB3FF;strokeColor=#40427D;" vertex="1" parent="1">
          <mxGeometry x="400" y="490" width="220" height="90" as="geometry">
            <mxRectangle x="580" y="370" width="80" height="30" as="alternateBounds" />
          </mxGeometry>
        </mxCell>
        <mxCell id="w_6Gt5Wecr9yxxaRGXFA-115" value="" style="shape=tableRow;horizontal=0;startSize=0;swimlaneHead=0;swimlaneBody=0;fillColor=none;collapsible=0;dropTarget=0;points=[[0,0.5],[1,0.5]];portConstraint=eastwest;top=0;left=0;right=0;bottom=0;html=1;strokeColor=#40427D;" vertex="1" parent="w_6Gt5Wecr9yxxaRGXFA-114">
          <mxGeometry y="30" width="220" height="30" as="geometry" />
        </mxCell>
        <mxCell id="w_6Gt5Wecr9yxxaRGXFA-116" value="&lt;font color=&quot;#40427d&quot;&gt;PK&lt;/font&gt;" style="shape=partialRectangle;connectable=0;fillColor=none;top=0;left=0;bottom=0;right=0;fontStyle=1;overflow=hidden;html=1;whiteSpace=wrap;strokeColor=#40427D;" vertex="1" parent="w_6Gt5Wecr9yxxaRGXFA-115">
          <mxGeometry width="60" height="30" as="geometry">
            <mxRectangle width="60" height="30" as="alternateBounds" />
          </mxGeometry>
        </mxCell>
        <mxCell id="w_6Gt5Wecr9yxxaRGXFA-117" value="&lt;font color=&quot;#40427d&quot;&gt;NúmeroNivel: int&lt;/font&gt;" style="shape=partialRectangle;connectable=0;fillColor=none;top=0;left=0;bottom=0;right=0;align=left;spacingLeft=6;fontStyle=5;overflow=hidden;html=1;whiteSpace=wrap;strokeColor=#40427D;" vertex="1" parent="w_6Gt5Wecr9yxxaRGXFA-115">
          <mxGeometry x="60" width="160" height="30" as="geometry">
            <mxRectangle width="160" height="30" as="alternateBounds" />
          </mxGeometry>
        </mxCell>
        <mxCell id="w_6Gt5Wecr9yxxaRGXFA-118" value="" style="shape=tableRow;horizontal=0;startSize=0;swimlaneHead=0;swimlaneBody=0;fillColor=none;collapsible=0;dropTarget=0;points=[[0,0.5],[1,0.5]];portConstraint=eastwest;top=0;left=0;right=0;bottom=1;html=1;strokeColor=#40427D;" vertex="1" parent="w_6Gt5Wecr9yxxaRGXFA-114">
          <mxGeometry y="60" width="220" height="30" as="geometry" />
        </mxCell>
        <mxCell id="w_6Gt5Wecr9yxxaRGXFA-119" value="&lt;font color=&quot;#40427d&quot;&gt;PK&lt;/font&gt;" style="shape=partialRectangle;connectable=0;fillColor=none;top=0;left=0;bottom=0;right=0;fontStyle=1;overflow=hidden;html=1;whiteSpace=wrap;strokeColor=#40427D;" vertex="1" parent="w_6Gt5Wecr9yxxaRGXFA-118">
          <mxGeometry width="60" height="30" as="geometry">
            <mxRectangle width="60" height="30" as="alternateBounds" />
          </mxGeometry>
        </mxCell>
        <mxCell id="w_6Gt5Wecr9yxxaRGXFA-120" value="&lt;font color=&quot;#40427d&quot;&gt;Sección: int&lt;/font&gt;" style="shape=partialRectangle;connectable=0;fillColor=none;top=0;left=0;bottom=0;right=0;align=left;spacingLeft=6;fontStyle=5;overflow=hidden;html=1;whiteSpace=wrap;strokeColor=#40427D;" vertex="1" parent="w_6Gt5Wecr9yxxaRGXFA-118">
          <mxGeometry x="60" width="160" height="30" as="geometry">
            <mxRectangle width="160" height="30" as="alternateBounds" />
          </mxGeometry>
        </mxCell>
        <mxCell id="w_6Gt5Wecr9yxxaRGXFA-121" value="&lt;font color=&quot;#40427d&quot;&gt;Trabajador&lt;/font&gt;" style="shape=table;startSize=30;container=1;collapsible=1;childLayout=tableLayout;fixedRows=1;rowLines=0;fontStyle=1;align=center;resizeLast=1;html=1;fillColor=#ADB3FF;strokeColor=#40427D;" vertex="1" parent="1">
          <mxGeometry x="-310" y="400" width="180" height="300" as="geometry" />
        </mxCell>
        <mxCell id="w_6Gt5Wecr9yxxaRGXFA-122" value="" style="shape=tableRow;horizontal=0;startSize=0;swimlaneHead=0;swimlaneBody=0;fillColor=none;collapsible=0;dropTarget=0;points=[[0,0.5],[1,0.5]];portConstraint=eastwest;top=0;left=0;right=0;bottom=1;strokeColor=#40427D;" vertex="1" parent="w_6Gt5Wecr9yxxaRGXFA-121">
          <mxGeometry y="30" width="180" height="30" as="geometry" />
        </mxCell>
        <mxCell id="w_6Gt5Wecr9yxxaRGXFA-123" value="&lt;font color=&quot;#40427d&quot;&gt;PK&lt;/font&gt;" style="shape=partialRectangle;connectable=0;fillColor=none;top=0;left=0;bottom=0;right=0;fontStyle=1;overflow=hidden;whiteSpace=wrap;html=1;strokeColor=#40427D;" vertex="1" parent="w_6Gt5Wecr9yxxaRGXFA-122">
          <mxGeometry width="30" height="30" as="geometry">
            <mxRectangle width="30" height="30" as="alternateBounds" />
          </mxGeometry>
        </mxCell>
        <mxCell id="w_6Gt5Wecr9yxxaRGXFA-124" value="&lt;span style=&quot;color: rgb(64, 66, 125);&quot;&gt;IdImperial: int&lt;/span&gt;" style="shape=partialRectangle;connectable=0;fillColor=none;top=0;left=0;bottom=0;right=0;align=left;spacingLeft=6;fontStyle=5;overflow=hidden;whiteSpace=wrap;html=1;strokeColor=#40427D;" vertex="1" parent="w_6Gt5Wecr9yxxaRGXFA-122">
          <mxGeometry x="30" width="150" height="30" as="geometry">
            <mxRectangle width="150" height="30" as="alternateBounds" />
          </mxGeometry>
        </mxCell>
        <mxCell id="w_6Gt5Wecr9yxxaRGXFA-125" value="" style="shape=tableRow;horizontal=0;startSize=0;swimlaneHead=0;swimlaneBody=0;fillColor=none;collapsible=0;dropTarget=0;points=[[0,0.5],[1,0.5]];portConstraint=eastwest;top=0;left=0;right=0;bottom=0;strokeColor=#40427D;" vertex="1" parent="w_6Gt5Wecr9yxxaRGXFA-121">
          <mxGeometry y="60" width="180" height="30" as="geometry" />
        </mxCell>
        <mxCell id="w_6Gt5Wecr9yxxaRGXFA-126" value="" style="shape=partialRectangle;connectable=0;fillColor=none;top=0;left=0;bottom=0;right=0;editable=1;overflow=hidden;whiteSpace=wrap;html=1;strokeColor=#40427D;" vertex="1" parent="w_6Gt5Wecr9yxxaRGXFA-125">
          <mxGeometry width="30" height="30" as="geometry">
            <mxRectangle width="30" height="30" as="alternateBounds" />
          </mxGeometry>
        </mxCell>
        <mxCell id="w_6Gt5Wecr9yxxaRGXFA-127" value="&lt;font color=&quot;#40427d&quot;&gt;Nombre: varchar(50)&lt;/font&gt;" style="shape=partialRectangle;connectable=0;fillColor=none;top=0;left=0;bottom=0;right=0;align=left;spacingLeft=6;overflow=hidden;whiteSpace=wrap;html=1;strokeColor=#40427D;" vertex="1" parent="w_6Gt5Wecr9yxxaRGXFA-125">
          <mxGeometry x="30" width="150" height="30" as="geometry">
            <mxRectangle width="150" height="30" as="alternateBounds" />
          </mxGeometry>
        </mxCell>
        <mxCell id="w_6Gt5Wecr9yxxaRGXFA-128" value="" style="shape=tableRow;horizontal=0;startSize=0;swimlaneHead=0;swimlaneBody=0;fillColor=none;collapsible=0;dropTarget=0;points=[[0,0.5],[1,0.5]];portConstraint=eastwest;top=0;left=0;right=0;bottom=0;strokeColor=#40427D;" vertex="1" parent="w_6Gt5Wecr9yxxaRGXFA-121">
          <mxGeometry y="90" width="180" height="30" as="geometry" />
        </mxCell>
        <mxCell id="w_6Gt5Wecr9yxxaRGXFA-129" value="" style="shape=partialRectangle;connectable=0;fillColor=none;top=0;left=0;bottom=0;right=0;editable=1;overflow=hidden;whiteSpace=wrap;html=1;strokeColor=#40427D;" vertex="1" parent="w_6Gt5Wecr9yxxaRGXFA-128">
          <mxGeometry width="30" height="30" as="geometry">
            <mxRectangle width="30" height="30" as="alternateBounds" />
          </mxGeometry>
        </mxCell>
        <mxCell id="w_6Gt5Wecr9yxxaRGXFA-130" value="&lt;font color=&quot;#40427d&quot;&gt;ApellidoM: varchar(50)&lt;/font&gt;" style="shape=partialRectangle;connectable=0;fillColor=none;top=0;left=0;bottom=0;right=0;align=left;spacingLeft=6;overflow=hidden;whiteSpace=wrap;html=1;strokeColor=#40427D;" vertex="1" parent="w_6Gt5Wecr9yxxaRGXFA-128">
          <mxGeometry x="30" width="150" height="30" as="geometry">
            <mxRectangle width="150" height="30" as="alternateBounds" />
          </mxGeometry>
        </mxCell>
        <mxCell id="w_6Gt5Wecr9yxxaRGXFA-131" value="" style="shape=tableRow;horizontal=0;startSize=0;swimlaneHead=0;swimlaneBody=0;fillColor=none;collapsible=0;dropTarget=0;points=[[0,0.5],[1,0.5]];portConstraint=eastwest;top=0;left=0;right=0;bottom=0;strokeColor=#40427D;" vertex="1" parent="w_6Gt5Wecr9yxxaRGXFA-121">
          <mxGeometry y="120" width="180" height="30" as="geometry" />
        </mxCell>
        <mxCell id="w_6Gt5Wecr9yxxaRGXFA-132" value="" style="shape=partialRectangle;connectable=0;fillColor=none;top=0;left=0;bottom=0;right=0;editable=1;overflow=hidden;whiteSpace=wrap;html=1;strokeColor=#40427D;" vertex="1" parent="w_6Gt5Wecr9yxxaRGXFA-131">
          <mxGeometry width="30" height="30" as="geometry">
            <mxRectangle width="30" height="30" as="alternateBounds" />
          </mxGeometry>
        </mxCell>
        <mxCell id="w_6Gt5Wecr9yxxaRGXFA-133" value="&lt;font color=&quot;#40427d&quot;&gt;ApellidoP: varchar(50)&lt;/font&gt;" style="shape=partialRectangle;connectable=0;fillColor=none;top=0;left=0;bottom=0;right=0;align=left;spacingLeft=6;overflow=hidden;whiteSpace=wrap;html=1;strokeColor=#40427D;" vertex="1" parent="w_6Gt5Wecr9yxxaRGXFA-131">
          <mxGeometry x="30" width="150" height="30" as="geometry">
            <mxRectangle width="150" height="30" as="alternateBounds" />
          </mxGeometry>
        </mxCell>
        <mxCell id="w_6Gt5Wecr9yxxaRGXFA-134" value="" style="shape=tableRow;horizontal=0;startSize=0;swimlaneHead=0;swimlaneBody=0;fillColor=none;collapsible=0;dropTarget=0;points=[[0,0.5],[1,0.5]];portConstraint=eastwest;top=0;left=0;right=0;bottom=0;strokeColor=#40427D;" vertex="1" parent="w_6Gt5Wecr9yxxaRGXFA-121">
          <mxGeometry y="150" width="180" height="30" as="geometry" />
        </mxCell>
        <mxCell id="w_6Gt5Wecr9yxxaRGXFA-135" value="" style="shape=partialRectangle;connectable=0;fillColor=none;top=0;left=0;bottom=0;right=0;editable=1;overflow=hidden;whiteSpace=wrap;html=1;strokeColor=#40427D;" vertex="1" parent="w_6Gt5Wecr9yxxaRGXFA-134">
          <mxGeometry width="30" height="30" as="geometry">
            <mxRectangle width="30" height="30" as="alternateBounds" />
          </mxGeometry>
        </mxCell>
        <mxCell id="w_6Gt5Wecr9yxxaRGXFA-136" value="&lt;font color=&quot;#40427d&quot;&gt;Rango: varchar(50)&lt;/font&gt;" style="shape=partialRectangle;connectable=0;fillColor=none;top=0;left=0;bottom=0;right=0;align=left;spacingLeft=6;overflow=hidden;whiteSpace=wrap;html=1;strokeColor=#40427D;" vertex="1" parent="w_6Gt5Wecr9yxxaRGXFA-134">
          <mxGeometry x="30" width="150" height="30" as="geometry">
            <mxRectangle width="150" height="30" as="alternateBounds" />
          </mxGeometry>
        </mxCell>
        <mxCell id="w_6Gt5Wecr9yxxaRGXFA-137" value="" style="shape=tableRow;horizontal=0;startSize=0;swimlaneHead=0;swimlaneBody=0;fillColor=none;collapsible=0;dropTarget=0;points=[[0,0.5],[1,0.5]];portConstraint=eastwest;top=0;left=0;right=0;bottom=0;strokeColor=#40427D;" vertex="1" parent="w_6Gt5Wecr9yxxaRGXFA-121">
          <mxGeometry y="180" width="180" height="30" as="geometry" />
        </mxCell>
        <mxCell id="w_6Gt5Wecr9yxxaRGXFA-138" value="&lt;font color=&quot;#40427d&quot;&gt;FK&lt;/font&gt;" style="shape=partialRectangle;connectable=0;fillColor=none;top=0;left=0;bottom=0;right=0;editable=1;overflow=hidden;whiteSpace=wrap;html=1;strokeColor=#40427D;" vertex="1" parent="w_6Gt5Wecr9yxxaRGXFA-137">
          <mxGeometry width="30" height="30" as="geometry">
            <mxRectangle width="30" height="30" as="alternateBounds" />
          </mxGeometry>
        </mxCell>
        <mxCell id="w_6Gt5Wecr9yxxaRGXFA-139" value="&lt;font color=&quot;#40427d&quot;&gt;IdOficial: int&lt;/font&gt;" style="shape=partialRectangle;connectable=0;fillColor=none;top=0;left=0;bottom=0;right=0;align=left;spacingLeft=6;overflow=hidden;whiteSpace=wrap;html=1;strokeColor=#40427D;" vertex="1" parent="w_6Gt5Wecr9yxxaRGXFA-137">
          <mxGeometry x="30" width="150" height="30" as="geometry">
            <mxRectangle width="150" height="30" as="alternateBounds" />
          </mxGeometry>
        </mxCell>
        <mxCell id="w_6Gt5Wecr9yxxaRGXFA-140" value="" style="shape=tableRow;horizontal=0;startSize=0;swimlaneHead=0;swimlaneBody=0;fillColor=none;collapsible=0;dropTarget=0;points=[[0,0.5],[1,0.5]];portConstraint=eastwest;top=0;left=0;right=0;bottom=0;strokeColor=#40427D;" vertex="1" parent="w_6Gt5Wecr9yxxaRGXFA-121">
          <mxGeometry y="210" width="180" height="30" as="geometry" />
        </mxCell>
        <mxCell id="w_6Gt5Wecr9yxxaRGXFA-141" value="&lt;font color=&quot;#40427d&quot;&gt;FK&lt;/font&gt;" style="shape=partialRectangle;connectable=0;fillColor=none;top=0;left=0;bottom=0;right=0;editable=1;overflow=hidden;whiteSpace=wrap;html=1;strokeColor=#40427D;" vertex="1" parent="w_6Gt5Wecr9yxxaRGXFA-140">
          <mxGeometry width="30" height="30" as="geometry">
            <mxRectangle width="30" height="30" as="alternateBounds" />
          </mxGeometry>
        </mxCell>
        <mxCell id="w_6Gt5Wecr9yxxaRGXFA-142" value="&lt;font color=&quot;#40427d&quot;&gt;NúmeroVivienda: int&lt;/font&gt;" style="shape=partialRectangle;connectable=0;fillColor=none;top=0;left=0;bottom=0;right=0;align=left;spacingLeft=6;overflow=hidden;whiteSpace=wrap;html=1;strokeColor=#40427D;" vertex="1" parent="w_6Gt5Wecr9yxxaRGXFA-140">
          <mxGeometry x="30" width="150" height="30" as="geometry">
            <mxRectangle width="150" height="30" as="alternateBounds" />
          </mxGeometry>
        </mxCell>
        <mxCell id="w_6Gt5Wecr9yxxaRGXFA-143" value="" style="shape=tableRow;horizontal=0;startSize=0;swimlaneHead=0;swimlaneBody=0;fillColor=none;collapsible=0;dropTarget=0;points=[[0,0.5],[1,0.5]];portConstraint=eastwest;top=0;left=0;right=0;bottom=0;strokeColor=#40427D;" vertex="1" parent="w_6Gt5Wecr9yxxaRGXFA-121">
          <mxGeometry y="240" width="180" height="30" as="geometry" />
        </mxCell>
        <mxCell id="w_6Gt5Wecr9yxxaRGXFA-144" value="" style="shape=partialRectangle;connectable=0;fillColor=none;top=0;left=0;bottom=0;right=0;editable=1;overflow=hidden;whiteSpace=wrap;html=1;strokeColor=#40427D;" vertex="1" parent="w_6Gt5Wecr9yxxaRGXFA-143">
          <mxGeometry width="30" height="30" as="geometry">
            <mxRectangle width="30" height="30" as="alternateBounds" />
          </mxGeometry>
        </mxCell>
        <mxCell id="w_6Gt5Wecr9yxxaRGXFA-145" value="&lt;font color=&quot;#40427d&quot;&gt;FechaInicio: date&lt;/font&gt;" style="shape=partialRectangle;connectable=0;fillColor=none;top=0;left=0;bottom=0;right=0;align=left;spacingLeft=6;overflow=hidden;whiteSpace=wrap;html=1;strokeColor=#40427D;" vertex="1" parent="w_6Gt5Wecr9yxxaRGXFA-143">
          <mxGeometry x="30" width="150" height="30" as="geometry">
            <mxRectangle width="150" height="30" as="alternateBounds" />
          </mxGeometry>
        </mxCell>
        <mxCell id="w_6Gt5Wecr9yxxaRGXFA-146" value="" style="shape=tableRow;horizontal=0;startSize=0;swimlaneHead=0;swimlaneBody=0;fillColor=none;collapsible=0;dropTarget=0;points=[[0,0.5],[1,0.5]];portConstraint=eastwest;top=0;left=0;right=0;bottom=0;strokeColor=#40427D;" vertex="1" parent="w_6Gt5Wecr9yxxaRGXFA-121">
          <mxGeometry y="270" width="180" height="30" as="geometry" />
        </mxCell>
        <mxCell id="w_6Gt5Wecr9yxxaRGXFA-147" value="" style="shape=partialRectangle;connectable=0;fillColor=none;top=0;left=0;bottom=0;right=0;editable=1;overflow=hidden;whiteSpace=wrap;html=1;strokeColor=#40427D;" vertex="1" parent="w_6Gt5Wecr9yxxaRGXFA-146">
          <mxGeometry width="30" height="30" as="geometry">
            <mxRectangle width="30" height="30" as="alternateBounds" />
          </mxGeometry>
        </mxCell>
        <mxCell id="w_6Gt5Wecr9yxxaRGXFA-148" value="&lt;span style=&quot;color: rgb(64, 66, 125);&quot;&gt;FechaFin: date&lt;/span&gt;" style="shape=partialRectangle;connectable=0;fillColor=none;top=0;left=0;bottom=0;right=0;align=left;spacingLeft=6;overflow=hidden;whiteSpace=wrap;html=1;strokeColor=#40427D;" vertex="1" parent="w_6Gt5Wecr9yxxaRGXFA-146">
          <mxGeometry x="30" width="150" height="30" as="geometry">
            <mxRectangle width="150" height="30" as="alternateBounds" />
          </mxGeometry>
        </mxCell>
        <mxCell id="w_6Gt5Wecr9yxxaRGXFA-149" value="&lt;font color=&quot;#40427d&quot;&gt;Oficial&lt;/font&gt;" style="shape=table;startSize=30;container=1;collapsible=1;childLayout=tableLayout;fixedRows=1;rowLines=0;fontStyle=1;align=center;resizeLast=1;html=1;fillColor=#ADB3FF;strokeColor=#40427D;" vertex="1" parent="1">
          <mxGeometry x="-570" y="390" width="190" height="120" as="geometry" />
        </mxCell>
        <mxCell id="bLUASHjlOhzQG__wXpjE-1" value="" style="shape=tableRow;horizontal=0;startSize=0;swimlaneHead=0;swimlaneBody=0;fillColor=none;collapsible=0;dropTarget=0;points=[[0,0.5],[1,0.5]];portConstraint=eastwest;top=0;left=0;right=0;bottom=1;strokeColor=#40427D;" vertex="1" parent="w_6Gt5Wecr9yxxaRGXFA-149">
          <mxGeometry y="30" width="190" height="30" as="geometry" />
        </mxCell>
        <mxCell id="bLUASHjlOhzQG__wXpjE-2" value="&lt;font color=&quot;#40427d&quot;&gt;PK&lt;/font&gt;" style="shape=partialRectangle;connectable=0;fillColor=none;top=0;left=0;bottom=0;right=0;fontStyle=1;overflow=hidden;whiteSpace=wrap;html=1;strokeColor=#40427D;" vertex="1" parent="bLUASHjlOhzQG__wXpjE-1">
          <mxGeometry width="40" height="30" as="geometry">
            <mxRectangle width="40" height="30" as="alternateBounds" />
          </mxGeometry>
        </mxCell>
        <mxCell id="bLUASHjlOhzQG__wXpjE-3" value="&lt;span style=&quot;color: rgb(64, 66, 125);&quot;&gt;IdImperial: int&lt;/span&gt;" style="shape=partialRectangle;connectable=0;fillColor=none;top=0;left=0;bottom=0;right=0;align=left;spacingLeft=6;fontStyle=5;overflow=hidden;whiteSpace=wrap;html=1;strokeColor=#40427D;" vertex="1" parent="bLUASHjlOhzQG__wXpjE-1">
          <mxGeometry x="40" width="150" height="30" as="geometry">
            <mxRectangle width="150" height="30" as="alternateBounds" />
          </mxGeometry>
        </mxCell>
        <mxCell id="w_6Gt5Wecr9yxxaRGXFA-150" value="" style="shape=tableRow;horizontal=0;startSize=0;swimlaneHead=0;swimlaneBody=0;fillColor=none;collapsible=0;dropTarget=0;points=[[0,0.5],[1,0.5]];portConstraint=eastwest;top=0;left=0;right=0;bottom=1;strokeColor=#40427D;" vertex="1" parent="w_6Gt5Wecr9yxxaRGXFA-149">
          <mxGeometry y="60" width="190" height="30" as="geometry" />
        </mxCell>
        <mxCell id="w_6Gt5Wecr9yxxaRGXFA-151" value="&lt;font color=&quot;#40427d&quot;&gt;PK&lt;/font&gt;" style="shape=partialRectangle;connectable=0;fillColor=none;top=0;left=0;bottom=0;right=0;fontStyle=1;overflow=hidden;whiteSpace=wrap;html=1;strokeColor=#40427D;" vertex="1" parent="w_6Gt5Wecr9yxxaRGXFA-150">
          <mxGeometry width="40" height="30" as="geometry">
            <mxRectangle width="40" height="30" as="alternateBounds" />
          </mxGeometry>
        </mxCell>
        <mxCell id="w_6Gt5Wecr9yxxaRGXFA-152" value="&lt;span style=&quot;color: rgb(64, 66, 125);&quot;&gt;IdOficial: int&lt;/span&gt;" style="shape=partialRectangle;connectable=0;fillColor=none;top=0;left=0;bottom=0;right=0;align=left;spacingLeft=6;fontStyle=5;overflow=hidden;whiteSpace=wrap;html=1;strokeColor=#40427D;" vertex="1" parent="w_6Gt5Wecr9yxxaRGXFA-150">
          <mxGeometry x="40" width="150" height="30" as="geometry">
            <mxRectangle width="150" height="30" as="alternateBounds" />
          </mxGeometry>
        </mxCell>
        <mxCell id="w_6Gt5Wecr9yxxaRGXFA-153" value="" style="shape=tableRow;horizontal=0;startSize=0;swimlaneHead=0;swimlaneBody=0;fillColor=none;collapsible=0;dropTarget=0;points=[[0,0.5],[1,0.5]];portConstraint=eastwest;top=0;left=0;right=0;bottom=0;strokeColor=#40427D;" vertex="1" parent="w_6Gt5Wecr9yxxaRGXFA-149">
          <mxGeometry y="90" width="190" height="30" as="geometry" />
        </mxCell>
        <mxCell id="w_6Gt5Wecr9yxxaRGXFA-154" value="" style="shape=partialRectangle;connectable=0;fillColor=none;top=0;left=0;bottom=0;right=0;editable=1;overflow=hidden;whiteSpace=wrap;html=1;strokeColor=#40427D;" vertex="1" parent="w_6Gt5Wecr9yxxaRGXFA-153">
          <mxGeometry width="40" height="30" as="geometry">
            <mxRectangle width="40" height="30" as="alternateBounds" />
          </mxGeometry>
        </mxCell>
        <mxCell id="w_6Gt5Wecr9yxxaRGXFA-155" value="&lt;font color=&quot;#40427d&quot;&gt;Categoria: varchar(50)&lt;/font&gt;" style="shape=partialRectangle;connectable=0;fillColor=none;top=0;left=0;bottom=0;right=0;align=left;spacingLeft=6;overflow=hidden;whiteSpace=wrap;html=1;strokeColor=#40427D;" vertex="1" parent="w_6Gt5Wecr9yxxaRGXFA-153">
          <mxGeometry x="40" width="150" height="30" as="geometry">
            <mxRectangle width="150" height="30" as="alternateBounds" />
          </mxGeometry>
        </mxCell>
        <mxCell id="w_6Gt5Wecr9yxxaRGXFA-159" value="&lt;font color=&quot;#40427d&quot;&gt;Soldado&lt;/font&gt;" style="shape=table;startSize=30;container=1;collapsible=1;childLayout=tableLayout;fixedRows=1;rowLines=0;fontStyle=1;align=center;resizeLast=1;html=1;fillColor=#ADB3FF;strokeColor=#40427D;" vertex="1" parent="1">
          <mxGeometry x="-570" y="520" width="190" height="90" as="geometry" />
        </mxCell>
        <mxCell id="w_6Gt5Wecr9yxxaRGXFA-160" value="" style="shape=tableRow;horizontal=0;startSize=0;swimlaneHead=0;swimlaneBody=0;fillColor=none;collapsible=0;dropTarget=0;points=[[0,0.5],[1,0.5]];portConstraint=eastwest;top=0;left=0;right=0;bottom=1;strokeColor=#40427D;" vertex="1" parent="w_6Gt5Wecr9yxxaRGXFA-159">
          <mxGeometry y="30" width="190" height="30" as="geometry" />
        </mxCell>
        <mxCell id="w_6Gt5Wecr9yxxaRGXFA-161" value="&lt;font color=&quot;#40427d&quot;&gt;PK&lt;/font&gt;" style="shape=partialRectangle;connectable=0;fillColor=none;top=0;left=0;bottom=0;right=0;fontStyle=1;overflow=hidden;whiteSpace=wrap;html=1;strokeColor=#40427D;" vertex="1" parent="w_6Gt5Wecr9yxxaRGXFA-160">
          <mxGeometry width="40" height="30" as="geometry">
            <mxRectangle width="40" height="30" as="alternateBounds" />
          </mxGeometry>
        </mxCell>
        <mxCell id="w_6Gt5Wecr9yxxaRGXFA-162" value="&lt;span style=&quot;color: rgb(64, 66, 125);&quot;&gt;IdImperial: int&lt;/span&gt;" style="shape=partialRectangle;connectable=0;fillColor=none;top=0;left=0;bottom=0;right=0;align=left;spacingLeft=6;fontStyle=5;overflow=hidden;whiteSpace=wrap;html=1;strokeColor=#40427D;" vertex="1" parent="w_6Gt5Wecr9yxxaRGXFA-160">
          <mxGeometry x="40" width="150" height="30" as="geometry">
            <mxRectangle width="150" height="30" as="alternateBounds" />
          </mxGeometry>
        </mxCell>
        <mxCell id="w_6Gt5Wecr9yxxaRGXFA-163" value="" style="shape=tableRow;horizontal=0;startSize=0;swimlaneHead=0;swimlaneBody=0;fillColor=none;collapsible=0;dropTarget=0;points=[[0,0.5],[1,0.5]];portConstraint=eastwest;top=0;left=0;right=0;bottom=0;strokeColor=#40427D;" vertex="1" parent="w_6Gt5Wecr9yxxaRGXFA-159">
          <mxGeometry y="60" width="190" height="30" as="geometry" />
        </mxCell>
        <mxCell id="w_6Gt5Wecr9yxxaRGXFA-164" value="" style="shape=partialRectangle;connectable=0;fillColor=none;top=0;left=0;bottom=0;right=0;editable=1;overflow=hidden;whiteSpace=wrap;html=1;strokeColor=#40427D;" vertex="1" parent="w_6Gt5Wecr9yxxaRGXFA-163">
          <mxGeometry width="40" height="30" as="geometry">
            <mxRectangle width="40" height="30" as="alternateBounds" />
          </mxGeometry>
        </mxCell>
        <mxCell id="w_6Gt5Wecr9yxxaRGXFA-165" value="&lt;font color=&quot;#40427d&quot;&gt;Tipo: varchar(50)&lt;/font&gt;" style="shape=partialRectangle;connectable=0;fillColor=none;top=0;left=0;bottom=0;right=0;align=left;spacingLeft=6;overflow=hidden;whiteSpace=wrap;html=1;strokeColor=#40427D;" vertex="1" parent="w_6Gt5Wecr9yxxaRGXFA-163">
          <mxGeometry x="40" width="150" height="30" as="geometry">
            <mxRectangle width="150" height="30" as="alternateBounds" />
          </mxGeometry>
        </mxCell>
        <mxCell id="w_6Gt5Wecr9yxxaRGXFA-166" value="&lt;font color=&quot;#40427d&quot;&gt;Piloto&lt;/font&gt;" style="shape=table;startSize=30;container=1;collapsible=1;childLayout=tableLayout;fixedRows=1;rowLines=0;fontStyle=1;align=center;resizeLast=1;html=1;fillColor=#ADB3FF;strokeColor=#40427D;" vertex="1" parent="1">
          <mxGeometry x="-570" y="630" width="190" height="90" as="geometry" />
        </mxCell>
        <mxCell id="w_6Gt5Wecr9yxxaRGXFA-167" value="" style="shape=tableRow;horizontal=0;startSize=0;swimlaneHead=0;swimlaneBody=0;fillColor=none;collapsible=0;dropTarget=0;points=[[0,0.5],[1,0.5]];portConstraint=eastwest;top=0;left=0;right=0;bottom=1;strokeColor=#40427D;" vertex="1" parent="w_6Gt5Wecr9yxxaRGXFA-166">
          <mxGeometry y="30" width="190" height="30" as="geometry" />
        </mxCell>
        <mxCell id="w_6Gt5Wecr9yxxaRGXFA-168" value="&lt;font color=&quot;#40427d&quot;&gt;PK&lt;/font&gt;" style="shape=partialRectangle;connectable=0;fillColor=none;top=0;left=0;bottom=0;right=0;fontStyle=1;overflow=hidden;whiteSpace=wrap;html=1;strokeColor=#40427D;" vertex="1" parent="w_6Gt5Wecr9yxxaRGXFA-167">
          <mxGeometry width="40" height="30" as="geometry">
            <mxRectangle width="40" height="30" as="alternateBounds" />
          </mxGeometry>
        </mxCell>
        <mxCell id="w_6Gt5Wecr9yxxaRGXFA-169" value="&lt;span style=&quot;color: rgb(64, 66, 125);&quot;&gt;IdImperial: int&lt;/span&gt;" style="shape=partialRectangle;connectable=0;fillColor=none;top=0;left=0;bottom=0;right=0;align=left;spacingLeft=6;fontStyle=5;overflow=hidden;whiteSpace=wrap;html=1;strokeColor=#40427D;" vertex="1" parent="w_6Gt5Wecr9yxxaRGXFA-167">
          <mxGeometry x="40" width="150" height="30" as="geometry">
            <mxRectangle width="150" height="30" as="alternateBounds" />
          </mxGeometry>
        </mxCell>
        <mxCell id="w_6Gt5Wecr9yxxaRGXFA-170" value="" style="shape=tableRow;horizontal=0;startSize=0;swimlaneHead=0;swimlaneBody=0;fillColor=none;collapsible=0;dropTarget=0;points=[[0,0.5],[1,0.5]];portConstraint=eastwest;top=0;left=0;right=0;bottom=0;strokeColor=#40427D;" vertex="1" parent="w_6Gt5Wecr9yxxaRGXFA-166">
          <mxGeometry y="60" width="190" height="30" as="geometry" />
        </mxCell>
        <mxCell id="w_6Gt5Wecr9yxxaRGXFA-171" value="" style="shape=partialRectangle;connectable=0;fillColor=none;top=0;left=0;bottom=0;right=0;editable=1;overflow=hidden;whiteSpace=wrap;html=1;strokeColor=#40427D;" vertex="1" parent="w_6Gt5Wecr9yxxaRGXFA-170">
          <mxGeometry width="40" height="30" as="geometry">
            <mxRectangle width="40" height="30" as="alternateBounds" />
          </mxGeometry>
        </mxCell>
        <mxCell id="w_6Gt5Wecr9yxxaRGXFA-172" value="&lt;font color=&quot;#40427d&quot;&gt;HorasVuelo: int&lt;/font&gt;" style="shape=partialRectangle;connectable=0;fillColor=none;top=0;left=0;bottom=0;right=0;align=left;spacingLeft=6;overflow=hidden;whiteSpace=wrap;html=1;strokeColor=#40427D;" vertex="1" parent="w_6Gt5Wecr9yxxaRGXFA-170">
          <mxGeometry x="40" width="150" height="30" as="geometry">
            <mxRectangle width="150" height="30" as="alternateBounds" />
          </mxGeometry>
        </mxCell>
        <mxCell id="w_6Gt5Wecr9yxxaRGXFA-173" value="&lt;font color=&quot;#40427d&quot;&gt;Artillero&lt;/font&gt;" style="shape=table;startSize=30;container=1;collapsible=1;childLayout=tableLayout;fixedRows=1;rowLines=0;fontStyle=1;align=center;resizeLast=1;html=1;fillColor=#ADB3FF;strokeColor=#40427D;" vertex="1" parent="1">
          <mxGeometry x="-570" y="740" width="190" height="90" as="geometry" />
        </mxCell>
        <mxCell id="w_6Gt5Wecr9yxxaRGXFA-174" value="" style="shape=tableRow;horizontal=0;startSize=0;swimlaneHead=0;swimlaneBody=0;fillColor=none;collapsible=0;dropTarget=0;points=[[0,0.5],[1,0.5]];portConstraint=eastwest;top=0;left=0;right=0;bottom=1;strokeColor=#40427D;" vertex="1" parent="w_6Gt5Wecr9yxxaRGXFA-173">
          <mxGeometry y="30" width="190" height="30" as="geometry" />
        </mxCell>
        <mxCell id="w_6Gt5Wecr9yxxaRGXFA-175" value="&lt;font color=&quot;#40427d&quot;&gt;PK&lt;/font&gt;" style="shape=partialRectangle;connectable=0;fillColor=none;top=0;left=0;bottom=0;right=0;fontStyle=1;overflow=hidden;whiteSpace=wrap;html=1;strokeColor=#40427D;" vertex="1" parent="w_6Gt5Wecr9yxxaRGXFA-174">
          <mxGeometry width="40" height="30" as="geometry">
            <mxRectangle width="40" height="30" as="alternateBounds" />
          </mxGeometry>
        </mxCell>
        <mxCell id="w_6Gt5Wecr9yxxaRGXFA-176" value="&lt;span style=&quot;color: rgb(64, 66, 125);&quot;&gt;IdImperial: int&lt;/span&gt;" style="shape=partialRectangle;connectable=0;fillColor=none;top=0;left=0;bottom=0;right=0;align=left;spacingLeft=6;fontStyle=5;overflow=hidden;whiteSpace=wrap;html=1;strokeColor=#40427D;" vertex="1" parent="w_6Gt5Wecr9yxxaRGXFA-174">
          <mxGeometry x="40" width="150" height="30" as="geometry">
            <mxRectangle width="150" height="30" as="alternateBounds" />
          </mxGeometry>
        </mxCell>
        <mxCell id="w_6Gt5Wecr9yxxaRGXFA-177" value="" style="shape=tableRow;horizontal=0;startSize=0;swimlaneHead=0;swimlaneBody=0;fillColor=none;collapsible=0;dropTarget=0;points=[[0,0.5],[1,0.5]];portConstraint=eastwest;top=0;left=0;right=0;bottom=0;strokeColor=#40427D;" vertex="1" parent="w_6Gt5Wecr9yxxaRGXFA-173">
          <mxGeometry y="60" width="190" height="30" as="geometry" />
        </mxCell>
        <mxCell id="w_6Gt5Wecr9yxxaRGXFA-178" value="" style="shape=partialRectangle;connectable=0;fillColor=none;top=0;left=0;bottom=0;right=0;editable=1;overflow=hidden;whiteSpace=wrap;html=1;strokeColor=#40427D;" vertex="1" parent="w_6Gt5Wecr9yxxaRGXFA-177">
          <mxGeometry width="40" height="30" as="geometry">
            <mxRectangle width="40" height="30" as="alternateBounds" />
          </mxGeometry>
        </mxCell>
        <mxCell id="w_6Gt5Wecr9yxxaRGXFA-179" value="&lt;font color=&quot;#40427d&quot;&gt;TipoArma: varchar(50)&lt;/font&gt;" style="shape=partialRectangle;connectable=0;fillColor=none;top=0;left=0;bottom=0;right=0;align=left;spacingLeft=6;overflow=hidden;whiteSpace=wrap;html=1;strokeColor=#40427D;" vertex="1" parent="w_6Gt5Wecr9yxxaRGXFA-177">
          <mxGeometry x="40" width="150" height="30" as="geometry">
            <mxRectangle width="150" height="30" as="alternateBounds" />
          </mxGeometry>
        </mxCell>
        <mxCell id="w_6Gt5Wecr9yxxaRGXFA-180" value="&lt;font color=&quot;#40427d&quot;&gt;Ingeniero&lt;/font&gt;" style="shape=table;startSize=30;container=1;collapsible=1;childLayout=tableLayout;fixedRows=1;rowLines=0;fontStyle=1;align=center;resizeLast=1;html=1;fillColor=#ADB3FF;strokeColor=#40427D;" vertex="1" parent="1">
          <mxGeometry x="-570" y="850" width="190" height="90" as="geometry" />
        </mxCell>
        <mxCell id="w_6Gt5Wecr9yxxaRGXFA-181" value="" style="shape=tableRow;horizontal=0;startSize=0;swimlaneHead=0;swimlaneBody=0;fillColor=none;collapsible=0;dropTarget=0;points=[[0,0.5],[1,0.5]];portConstraint=eastwest;top=0;left=0;right=0;bottom=1;strokeColor=#40427D;" vertex="1" parent="w_6Gt5Wecr9yxxaRGXFA-180">
          <mxGeometry y="30" width="190" height="30" as="geometry" />
        </mxCell>
        <mxCell id="w_6Gt5Wecr9yxxaRGXFA-182" value="&lt;font color=&quot;#40427d&quot;&gt;PK&lt;/font&gt;" style="shape=partialRectangle;connectable=0;fillColor=none;top=0;left=0;bottom=0;right=0;fontStyle=1;overflow=hidden;whiteSpace=wrap;html=1;strokeColor=#40427D;" vertex="1" parent="w_6Gt5Wecr9yxxaRGXFA-181">
          <mxGeometry width="40" height="30" as="geometry">
            <mxRectangle width="40" height="30" as="alternateBounds" />
          </mxGeometry>
        </mxCell>
        <mxCell id="w_6Gt5Wecr9yxxaRGXFA-183" value="&lt;span style=&quot;color: rgb(64, 66, 125);&quot;&gt;IdImperial: int&lt;/span&gt;" style="shape=partialRectangle;connectable=0;fillColor=none;top=0;left=0;bottom=0;right=0;align=left;spacingLeft=6;fontStyle=5;overflow=hidden;whiteSpace=wrap;html=1;strokeColor=#40427D;" vertex="1" parent="w_6Gt5Wecr9yxxaRGXFA-181">
          <mxGeometry x="40" width="150" height="30" as="geometry">
            <mxRectangle width="150" height="30" as="alternateBounds" />
          </mxGeometry>
        </mxCell>
        <mxCell id="w_6Gt5Wecr9yxxaRGXFA-184" value="" style="shape=tableRow;horizontal=0;startSize=0;swimlaneHead=0;swimlaneBody=0;fillColor=none;collapsible=0;dropTarget=0;points=[[0,0.5],[1,0.5]];portConstraint=eastwest;top=0;left=0;right=0;bottom=0;strokeColor=#40427D;" vertex="1" parent="w_6Gt5Wecr9yxxaRGXFA-180">
          <mxGeometry y="60" width="190" height="30" as="geometry" />
        </mxCell>
        <mxCell id="w_6Gt5Wecr9yxxaRGXFA-185" value="" style="shape=partialRectangle;connectable=0;fillColor=none;top=0;left=0;bottom=0;right=0;editable=1;overflow=hidden;whiteSpace=wrap;html=1;strokeColor=#40427D;" vertex="1" parent="w_6Gt5Wecr9yxxaRGXFA-184">
          <mxGeometry width="40" height="30" as="geometry">
            <mxRectangle width="40" height="30" as="alternateBounds" />
          </mxGeometry>
        </mxCell>
        <mxCell id="w_6Gt5Wecr9yxxaRGXFA-186" value="&lt;font color=&quot;#40427d&quot;&gt;Especialidad: varchar(50)&lt;/font&gt;" style="shape=partialRectangle;connectable=0;fillColor=none;top=0;left=0;bottom=0;right=0;align=left;spacingLeft=6;overflow=hidden;whiteSpace=wrap;html=1;strokeColor=#40427D;" vertex="1" parent="w_6Gt5Wecr9yxxaRGXFA-184">
          <mxGeometry x="40" width="150" height="30" as="geometry">
            <mxRectangle width="150" height="30" as="alternateBounds" />
          </mxGeometry>
        </mxCell>
        <mxCell id="w_6Gt5Wecr9yxxaRGXFA-187" value="&lt;font color=&quot;#40427d&quot;&gt;Vivienda&lt;/font&gt;" style="shape=table;startSize=30;container=1;collapsible=1;childLayout=tableLayout;fixedRows=1;rowLines=0;fontStyle=1;align=center;resizeLast=1;html=1;fillColor=#ADB3FF;strokeColor=#40427D;" vertex="1" parent="1">
          <mxGeometry x="-70" y="200" width="180" height="150" as="geometry" />
        </mxCell>
        <mxCell id="w_6Gt5Wecr9yxxaRGXFA-188" value="" style="shape=tableRow;horizontal=0;startSize=0;swimlaneHead=0;swimlaneBody=0;fillColor=none;collapsible=0;dropTarget=0;points=[[0,0.5],[1,0.5]];portConstraint=eastwest;top=0;left=0;right=0;bottom=1;strokeColor=#40427D;" vertex="1" parent="w_6Gt5Wecr9yxxaRGXFA-187">
          <mxGeometry y="30" width="180" height="30" as="geometry" />
        </mxCell>
        <mxCell id="w_6Gt5Wecr9yxxaRGXFA-189" value="&lt;font color=&quot;#40427d&quot;&gt;PK&lt;/font&gt;" style="shape=partialRectangle;connectable=0;fillColor=none;top=0;left=0;bottom=0;right=0;fontStyle=1;overflow=hidden;whiteSpace=wrap;html=1;strokeColor=#40427D;" vertex="1" parent="w_6Gt5Wecr9yxxaRGXFA-188">
          <mxGeometry width="30" height="30" as="geometry">
            <mxRectangle width="30" height="30" as="alternateBounds" />
          </mxGeometry>
        </mxCell>
        <mxCell id="w_6Gt5Wecr9yxxaRGXFA-190" value="&lt;span style=&quot;color: rgb(64, 66, 125);&quot;&gt;NúmeroVivienda: int&lt;/span&gt;" style="shape=partialRectangle;connectable=0;fillColor=none;top=0;left=0;bottom=0;right=0;align=left;spacingLeft=6;fontStyle=5;overflow=hidden;whiteSpace=wrap;html=1;strokeColor=#40427D;" vertex="1" parent="w_6Gt5Wecr9yxxaRGXFA-188">
          <mxGeometry x="30" width="150" height="30" as="geometry">
            <mxRectangle width="150" height="30" as="alternateBounds" />
          </mxGeometry>
        </mxCell>
        <mxCell id="w_6Gt5Wecr9yxxaRGXFA-191" value="" style="shape=tableRow;horizontal=0;startSize=0;swimlaneHead=0;swimlaneBody=0;fillColor=none;collapsible=0;dropTarget=0;points=[[0,0.5],[1,0.5]];portConstraint=eastwest;top=0;left=0;right=0;bottom=0;strokeColor=#40427D;" vertex="1" parent="w_6Gt5Wecr9yxxaRGXFA-187">
          <mxGeometry y="60" width="180" height="30" as="geometry" />
        </mxCell>
        <mxCell id="w_6Gt5Wecr9yxxaRGXFA-192" value="" style="shape=partialRectangle;connectable=0;fillColor=none;top=0;left=0;bottom=0;right=0;editable=1;overflow=hidden;whiteSpace=wrap;html=1;strokeColor=#40427D;" vertex="1" parent="w_6Gt5Wecr9yxxaRGXFA-191">
          <mxGeometry width="30" height="30" as="geometry">
            <mxRectangle width="30" height="30" as="alternateBounds" />
          </mxGeometry>
        </mxCell>
        <mxCell id="w_6Gt5Wecr9yxxaRGXFA-193" value="&lt;font color=&quot;#40427d&quot;&gt;Capacidad: int&lt;/font&gt;" style="shape=partialRectangle;connectable=0;fillColor=none;top=0;left=0;bottom=0;right=0;align=left;spacingLeft=6;overflow=hidden;whiteSpace=wrap;html=1;strokeColor=#40427D;" vertex="1" parent="w_6Gt5Wecr9yxxaRGXFA-191">
          <mxGeometry x="30" width="150" height="30" as="geometry">
            <mxRectangle width="150" height="30" as="alternateBounds" />
          </mxGeometry>
        </mxCell>
        <mxCell id="w_6Gt5Wecr9yxxaRGXFA-194" value="" style="shape=tableRow;horizontal=0;startSize=0;swimlaneHead=0;swimlaneBody=0;fillColor=none;collapsible=0;dropTarget=0;points=[[0,0.5],[1,0.5]];portConstraint=eastwest;top=0;left=0;right=0;bottom=0;strokeColor=#40427D;" vertex="1" parent="w_6Gt5Wecr9yxxaRGXFA-187">
          <mxGeometry y="90" width="180" height="30" as="geometry" />
        </mxCell>
        <mxCell id="w_6Gt5Wecr9yxxaRGXFA-195" value="" style="shape=partialRectangle;connectable=0;fillColor=none;top=0;left=0;bottom=0;right=0;editable=1;overflow=hidden;whiteSpace=wrap;html=1;strokeColor=#40427D;" vertex="1" parent="w_6Gt5Wecr9yxxaRGXFA-194">
          <mxGeometry width="30" height="30" as="geometry">
            <mxRectangle width="30" height="30" as="alternateBounds" />
          </mxGeometry>
        </mxCell>
        <mxCell id="w_6Gt5Wecr9yxxaRGXFA-196" value="&lt;font color=&quot;#40427d&quot;&gt;Tipo: varchar(50)&lt;/font&gt;" style="shape=partialRectangle;connectable=0;fillColor=none;top=0;left=0;bottom=0;right=0;align=left;spacingLeft=6;overflow=hidden;whiteSpace=wrap;html=1;strokeColor=#40427D;" vertex="1" parent="w_6Gt5Wecr9yxxaRGXFA-194">
          <mxGeometry x="30" width="150" height="30" as="geometry">
            <mxRectangle width="150" height="30" as="alternateBounds" />
          </mxGeometry>
        </mxCell>
        <mxCell id="w_6Gt5Wecr9yxxaRGXFA-197" value="" style="shape=tableRow;horizontal=0;startSize=0;swimlaneHead=0;swimlaneBody=0;fillColor=none;collapsible=0;dropTarget=0;points=[[0,0.5],[1,0.5]];portConstraint=eastwest;top=0;left=0;right=0;bottom=0;strokeColor=#40427D;" vertex="1" parent="w_6Gt5Wecr9yxxaRGXFA-187">
          <mxGeometry y="120" width="180" height="30" as="geometry" />
        </mxCell>
        <mxCell id="w_6Gt5Wecr9yxxaRGXFA-198" value="FK" style="shape=partialRectangle;connectable=0;fillColor=none;top=0;left=0;bottom=0;right=0;editable=1;overflow=hidden;whiteSpace=wrap;html=1;strokeColor=#40427D;" vertex="1" parent="w_6Gt5Wecr9yxxaRGXFA-197">
          <mxGeometry width="30" height="30" as="geometry">
            <mxRectangle width="30" height="30" as="alternateBounds" />
          </mxGeometry>
        </mxCell>
        <mxCell id="w_6Gt5Wecr9yxxaRGXFA-199" value="&lt;font color=&quot;#40427d&quot;&gt;NúmeroNivel: int&lt;/font&gt;" style="shape=partialRectangle;connectable=0;fillColor=none;top=0;left=0;bottom=0;right=0;align=left;spacingLeft=6;overflow=hidden;whiteSpace=wrap;html=1;strokeColor=#40427D;" vertex="1" parent="w_6Gt5Wecr9yxxaRGXFA-197">
          <mxGeometry x="30" width="150" height="30" as="geometry">
            <mxRectangle width="150" height="30" as="alternateBounds" />
          </mxGeometry>
        </mxCell>
        <mxCell id="w_6Gt5Wecr9yxxaRGXFA-200" value="&lt;font color=&quot;#40427d&quot;&gt;Prisionero&lt;/font&gt;" style="shape=table;startSize=30;container=1;collapsible=1;childLayout=tableLayout;fixedRows=1;rowLines=0;fontStyle=1;align=center;resizeLast=1;html=1;fillColor=#ADB3FF;strokeColor=#40427D;" vertex="1" parent="1">
          <mxGeometry x="640" y="200" width="180" height="180" as="geometry" />
        </mxCell>
        <mxCell id="w_6Gt5Wecr9yxxaRGXFA-201" value="" style="shape=tableRow;horizontal=0;startSize=0;swimlaneHead=0;swimlaneBody=0;fillColor=none;collapsible=0;dropTarget=0;points=[[0,0.5],[1,0.5]];portConstraint=eastwest;top=0;left=0;right=0;bottom=1;strokeColor=#40427D;" vertex="1" parent="w_6Gt5Wecr9yxxaRGXFA-200">
          <mxGeometry y="30" width="180" height="30" as="geometry" />
        </mxCell>
        <mxCell id="w_6Gt5Wecr9yxxaRGXFA-202" value="&lt;font color=&quot;#40427d&quot;&gt;PK&lt;/font&gt;" style="shape=partialRectangle;connectable=0;fillColor=none;top=0;left=0;bottom=0;right=0;fontStyle=1;overflow=hidden;whiteSpace=wrap;html=1;strokeColor=#40427D;" vertex="1" parent="w_6Gt5Wecr9yxxaRGXFA-201">
          <mxGeometry width="30" height="30" as="geometry">
            <mxRectangle width="30" height="30" as="alternateBounds" />
          </mxGeometry>
        </mxCell>
        <mxCell id="w_6Gt5Wecr9yxxaRGXFA-203" value="&lt;span style=&quot;color: rgb(64, 66, 125);&quot;&gt;IdPrisionero: int&lt;/span&gt;" style="shape=partialRectangle;connectable=0;fillColor=none;top=0;left=0;bottom=0;right=0;align=left;spacingLeft=6;fontStyle=5;overflow=hidden;whiteSpace=wrap;html=1;strokeColor=#40427D;" vertex="1" parent="w_6Gt5Wecr9yxxaRGXFA-201">
          <mxGeometry x="30" width="150" height="30" as="geometry">
            <mxRectangle width="150" height="30" as="alternateBounds" />
          </mxGeometry>
        </mxCell>
        <mxCell id="w_6Gt5Wecr9yxxaRGXFA-204" value="" style="shape=tableRow;horizontal=0;startSize=0;swimlaneHead=0;swimlaneBody=0;fillColor=none;collapsible=0;dropTarget=0;points=[[0,0.5],[1,0.5]];portConstraint=eastwest;top=0;left=0;right=0;bottom=0;strokeColor=#40427D;" vertex="1" parent="w_6Gt5Wecr9yxxaRGXFA-200">
          <mxGeometry y="60" width="180" height="30" as="geometry" />
        </mxCell>
        <mxCell id="w_6Gt5Wecr9yxxaRGXFA-205" value="" style="shape=partialRectangle;connectable=0;fillColor=none;top=0;left=0;bottom=0;right=0;editable=1;overflow=hidden;whiteSpace=wrap;html=1;strokeColor=#40427D;" vertex="1" parent="w_6Gt5Wecr9yxxaRGXFA-204">
          <mxGeometry width="30" height="30" as="geometry">
            <mxRectangle width="30" height="30" as="alternateBounds" />
          </mxGeometry>
        </mxCell>
        <mxCell id="w_6Gt5Wecr9yxxaRGXFA-206" value="&lt;font color=&quot;#40427d&quot;&gt;Nombre: varchar(50)&lt;/font&gt;" style="shape=partialRectangle;connectable=0;fillColor=none;top=0;left=0;bottom=0;right=0;align=left;spacingLeft=6;overflow=hidden;whiteSpace=wrap;html=1;strokeColor=#40427D;" vertex="1" parent="w_6Gt5Wecr9yxxaRGXFA-204">
          <mxGeometry x="30" width="150" height="30" as="geometry">
            <mxRectangle width="150" height="30" as="alternateBounds" />
          </mxGeometry>
        </mxCell>
        <mxCell id="w_6Gt5Wecr9yxxaRGXFA-213" value="" style="shape=tableRow;horizontal=0;startSize=0;swimlaneHead=0;swimlaneBody=0;fillColor=none;collapsible=0;dropTarget=0;points=[[0,0.5],[1,0.5]];portConstraint=eastwest;top=0;left=0;right=0;bottom=0;strokeColor=#40427D;" vertex="1" parent="w_6Gt5Wecr9yxxaRGXFA-200">
          <mxGeometry y="90" width="180" height="30" as="geometry" />
        </mxCell>
        <mxCell id="w_6Gt5Wecr9yxxaRGXFA-214" value="" style="shape=partialRectangle;connectable=0;fillColor=none;top=0;left=0;bottom=0;right=0;editable=1;overflow=hidden;whiteSpace=wrap;html=1;strokeColor=#40427D;" vertex="1" parent="w_6Gt5Wecr9yxxaRGXFA-213">
          <mxGeometry width="30" height="30" as="geometry">
            <mxRectangle width="30" height="30" as="alternateBounds" />
          </mxGeometry>
        </mxCell>
        <mxCell id="w_6Gt5Wecr9yxxaRGXFA-215" value="&lt;font color=&quot;#40427d&quot;&gt;ApellidoM: varchar(50)&lt;/font&gt;" style="shape=partialRectangle;connectable=0;fillColor=none;top=0;left=0;bottom=0;right=0;align=left;spacingLeft=6;overflow=hidden;whiteSpace=wrap;html=1;strokeColor=#40427D;" vertex="1" parent="w_6Gt5Wecr9yxxaRGXFA-213">
          <mxGeometry x="30" width="150" height="30" as="geometry">
            <mxRectangle width="150" height="30" as="alternateBounds" />
          </mxGeometry>
        </mxCell>
        <mxCell id="w_6Gt5Wecr9yxxaRGXFA-207" value="" style="shape=tableRow;horizontal=0;startSize=0;swimlaneHead=0;swimlaneBody=0;fillColor=none;collapsible=0;dropTarget=0;points=[[0,0.5],[1,0.5]];portConstraint=eastwest;top=0;left=0;right=0;bottom=0;strokeColor=#40427D;" vertex="1" parent="w_6Gt5Wecr9yxxaRGXFA-200">
          <mxGeometry y="120" width="180" height="30" as="geometry" />
        </mxCell>
        <mxCell id="w_6Gt5Wecr9yxxaRGXFA-208" value="" style="shape=partialRectangle;connectable=0;fillColor=none;top=0;left=0;bottom=0;right=0;editable=1;overflow=hidden;whiteSpace=wrap;html=1;strokeColor=#40427D;" vertex="1" parent="w_6Gt5Wecr9yxxaRGXFA-207">
          <mxGeometry width="30" height="30" as="geometry">
            <mxRectangle width="30" height="30" as="alternateBounds" />
          </mxGeometry>
        </mxCell>
        <mxCell id="w_6Gt5Wecr9yxxaRGXFA-209" value="&lt;font color=&quot;#40427d&quot;&gt;ApellidoP: varchar(50)&lt;/font&gt;" style="shape=partialRectangle;connectable=0;fillColor=none;top=0;left=0;bottom=0;right=0;align=left;spacingLeft=6;overflow=hidden;whiteSpace=wrap;html=1;strokeColor=#40427D;" vertex="1" parent="w_6Gt5Wecr9yxxaRGXFA-207">
          <mxGeometry x="30" width="150" height="30" as="geometry">
            <mxRectangle width="150" height="30" as="alternateBounds" />
          </mxGeometry>
        </mxCell>
        <mxCell id="w_6Gt5Wecr9yxxaRGXFA-210" value="" style="shape=tableRow;horizontal=0;startSize=0;swimlaneHead=0;swimlaneBody=0;fillColor=none;collapsible=0;dropTarget=0;points=[[0,0.5],[1,0.5]];portConstraint=eastwest;top=0;left=0;right=0;bottom=0;strokeColor=#40427D;" vertex="1" parent="w_6Gt5Wecr9yxxaRGXFA-200">
          <mxGeometry y="150" width="180" height="30" as="geometry" />
        </mxCell>
        <mxCell id="w_6Gt5Wecr9yxxaRGXFA-211" value="" style="shape=partialRectangle;connectable=0;fillColor=none;top=0;left=0;bottom=0;right=0;editable=1;overflow=hidden;whiteSpace=wrap;html=1;strokeColor=#40427D;" vertex="1" parent="w_6Gt5Wecr9yxxaRGXFA-210">
          <mxGeometry width="30" height="30" as="geometry">
            <mxRectangle width="30" height="30" as="alternateBounds" />
          </mxGeometry>
        </mxCell>
        <mxCell id="w_6Gt5Wecr9yxxaRGXFA-212" value="&lt;font color=&quot;#40427d&quot;&gt;Afiliación: varchar(50)&lt;/font&gt;" style="shape=partialRectangle;connectable=0;fillColor=none;top=0;left=0;bottom=0;right=0;align=left;spacingLeft=6;overflow=hidden;whiteSpace=wrap;html=1;strokeColor=#40427D;" vertex="1" parent="w_6Gt5Wecr9yxxaRGXFA-210">
          <mxGeometry x="30" width="150" height="30" as="geometry">
            <mxRectangle width="150" height="30" as="alternateBounds" />
          </mxGeometry>
        </mxCell>
        <mxCell id="w_6Gt5Wecr9yxxaRGXFA-235" value="&lt;font color=&quot;#40427d&quot;&gt;Celda&lt;/font&gt;" style="shape=table;startSize=30;container=1;collapsible=1;childLayout=tableLayout;fixedRows=1;rowLines=0;fontStyle=1;align=center;resizeLast=1;html=1;whiteSpace=wrap;fillColor=#ADB3FF;strokeColor=#40427D;" vertex="1" parent="1">
          <mxGeometry x="180" y="200" width="180" height="150" as="geometry" />
        </mxCell>
        <mxCell id="w_6Gt5Wecr9yxxaRGXFA-236" value="" style="shape=tableRow;horizontal=0;startSize=0;swimlaneHead=0;swimlaneBody=0;fillColor=none;collapsible=0;dropTarget=0;points=[[0,0.5],[1,0.5]];portConstraint=eastwest;top=0;left=0;right=0;bottom=0;html=1;strokeColor=#40427D;" vertex="1" parent="w_6Gt5Wecr9yxxaRGXFA-235">
          <mxGeometry y="30" width="180" height="30" as="geometry" />
        </mxCell>
        <mxCell id="w_6Gt5Wecr9yxxaRGXFA-237" value="&lt;font color=&quot;#40427d&quot;&gt;PK&lt;/font&gt;" style="shape=partialRectangle;connectable=0;fillColor=none;top=0;left=0;bottom=0;right=0;fontStyle=1;overflow=hidden;html=1;whiteSpace=wrap;strokeColor=#40427D;" vertex="1" parent="w_6Gt5Wecr9yxxaRGXFA-236">
          <mxGeometry width="60" height="30" as="geometry">
            <mxRectangle width="60" height="30" as="alternateBounds" />
          </mxGeometry>
        </mxCell>
        <mxCell id="w_6Gt5Wecr9yxxaRGXFA-238" value="&lt;font color=&quot;#40427d&quot;&gt;NúmeroNivel: int&lt;/font&gt;" style="shape=partialRectangle;connectable=0;fillColor=none;top=0;left=0;bottom=0;right=0;align=left;spacingLeft=6;fontStyle=5;overflow=hidden;html=1;whiteSpace=wrap;strokeColor=#40427D;" vertex="1" parent="w_6Gt5Wecr9yxxaRGXFA-236">
          <mxGeometry x="60" width="120" height="30" as="geometry">
            <mxRectangle width="120" height="30" as="alternateBounds" />
          </mxGeometry>
        </mxCell>
        <mxCell id="w_6Gt5Wecr9yxxaRGXFA-239" value="" style="shape=tableRow;horizontal=0;startSize=0;swimlaneHead=0;swimlaneBody=0;fillColor=none;collapsible=0;dropTarget=0;points=[[0,0.5],[1,0.5]];portConstraint=eastwest;top=0;left=0;right=0;bottom=1;html=1;strokeColor=#40427D;" vertex="1" parent="w_6Gt5Wecr9yxxaRGXFA-235">
          <mxGeometry y="60" width="180" height="30" as="geometry" />
        </mxCell>
        <mxCell id="w_6Gt5Wecr9yxxaRGXFA-240" value="&lt;font color=&quot;#40427d&quot;&gt;PK&lt;/font&gt;" style="shape=partialRectangle;connectable=0;fillColor=none;top=0;left=0;bottom=0;right=0;fontStyle=1;overflow=hidden;html=1;whiteSpace=wrap;strokeColor=#40427D;" vertex="1" parent="w_6Gt5Wecr9yxxaRGXFA-239">
          <mxGeometry width="60" height="30" as="geometry">
            <mxRectangle width="60" height="30" as="alternateBounds" />
          </mxGeometry>
        </mxCell>
        <mxCell id="w_6Gt5Wecr9yxxaRGXFA-241" value="&lt;font color=&quot;#40427d&quot;&gt;Letra: char(1)&lt;/font&gt;" style="shape=partialRectangle;connectable=0;fillColor=none;top=0;left=0;bottom=0;right=0;align=left;spacingLeft=6;fontStyle=5;overflow=hidden;html=1;whiteSpace=wrap;strokeColor=#40427D;" vertex="1" parent="w_6Gt5Wecr9yxxaRGXFA-239">
          <mxGeometry x="60" width="120" height="30" as="geometry">
            <mxRectangle width="120" height="30" as="alternateBounds" />
          </mxGeometry>
        </mxCell>
        <mxCell id="w_6Gt5Wecr9yxxaRGXFA-242" value="" style="shape=tableRow;horizontal=0;startSize=0;swimlaneHead=0;swimlaneBody=0;fillColor=none;collapsible=0;dropTarget=0;points=[[0,0.5],[1,0.5]];portConstraint=eastwest;top=0;left=0;right=0;bottom=0;html=1;strokeColor=#40427D;" vertex="1" parent="w_6Gt5Wecr9yxxaRGXFA-235">
          <mxGeometry y="90" width="180" height="30" as="geometry" />
        </mxCell>
        <mxCell id="w_6Gt5Wecr9yxxaRGXFA-243" value="" style="shape=partialRectangle;connectable=0;fillColor=none;top=0;left=0;bottom=0;right=0;editable=1;overflow=hidden;html=1;whiteSpace=wrap;strokeColor=#40427D;" vertex="1" parent="w_6Gt5Wecr9yxxaRGXFA-242">
          <mxGeometry width="60" height="30" as="geometry">
            <mxRectangle width="60" height="30" as="alternateBounds" />
          </mxGeometry>
        </mxCell>
        <mxCell id="w_6Gt5Wecr9yxxaRGXFA-244" value="&lt;font color=&quot;#40427d&quot;&gt;Tipo: varchar(50)&lt;/font&gt;" style="shape=partialRectangle;connectable=0;fillColor=none;top=0;left=0;bottom=0;right=0;align=left;spacingLeft=6;overflow=hidden;html=1;whiteSpace=wrap;strokeColor=#40427D;" vertex="1" parent="w_6Gt5Wecr9yxxaRGXFA-242">
          <mxGeometry x="60" width="120" height="30" as="geometry">
            <mxRectangle width="120" height="30" as="alternateBounds" />
          </mxGeometry>
        </mxCell>
        <mxCell id="w_6Gt5Wecr9yxxaRGXFA-245" value="" style="shape=tableRow;horizontal=0;startSize=0;swimlaneHead=0;swimlaneBody=0;fillColor=none;collapsible=0;dropTarget=0;points=[[0,0.5],[1,0.5]];portConstraint=eastwest;top=0;left=0;right=0;bottom=0;html=1;strokeColor=#40427D;" vertex="1" parent="w_6Gt5Wecr9yxxaRGXFA-235">
          <mxGeometry y="120" width="180" height="30" as="geometry" />
        </mxCell>
        <mxCell id="w_6Gt5Wecr9yxxaRGXFA-246" value="" style="shape=partialRectangle;connectable=0;fillColor=none;top=0;left=0;bottom=0;right=0;editable=1;overflow=hidden;html=1;whiteSpace=wrap;strokeColor=#40427D;" vertex="1" parent="w_6Gt5Wecr9yxxaRGXFA-245">
          <mxGeometry width="60" height="30" as="geometry">
            <mxRectangle width="60" height="30" as="alternateBounds" />
          </mxGeometry>
        </mxCell>
        <mxCell id="w_6Gt5Wecr9yxxaRGXFA-247" value="&lt;font color=&quot;#40427d&quot;&gt;Capacidad: int&lt;/font&gt;" style="shape=partialRectangle;connectable=0;fillColor=none;top=0;left=0;bottom=0;right=0;align=left;spacingLeft=6;overflow=hidden;html=1;whiteSpace=wrap;strokeColor=#40427D;" vertex="1" parent="w_6Gt5Wecr9yxxaRGXFA-245">
          <mxGeometry x="60" width="120" height="30" as="geometry">
            <mxRectangle width="120" height="30" as="alternateBounds" />
          </mxGeometry>
        </mxCell>
        <mxCell id="w_6Gt5Wecr9yxxaRGXFA-248" value="&lt;font color=&quot;#40427d&quot;&gt;Pertenecer&lt;/font&gt;" style="shape=table;startSize=30;container=1;collapsible=1;childLayout=tableLayout;fixedRows=1;rowLines=0;fontStyle=1;align=center;resizeLast=1;html=1;whiteSpace=wrap;fillColor=#ADB3FF;strokeColor=#40427D;" vertex="1" parent="1">
          <mxGeometry x="-70" y="400" width="220" height="90" as="geometry">
            <mxRectangle x="580" y="370" width="80" height="30" as="alternateBounds" />
          </mxGeometry>
        </mxCell>
        <mxCell id="w_6Gt5Wecr9yxxaRGXFA-249" value="" style="shape=tableRow;horizontal=0;startSize=0;swimlaneHead=0;swimlaneBody=0;fillColor=none;collapsible=0;dropTarget=0;points=[[0,0.5],[1,0.5]];portConstraint=eastwest;top=0;left=0;right=0;bottom=0;html=1;strokeColor=#40427D;" vertex="1" parent="w_6Gt5Wecr9yxxaRGXFA-248">
          <mxGeometry y="30" width="220" height="30" as="geometry" />
        </mxCell>
        <mxCell id="w_6Gt5Wecr9yxxaRGXFA-250" value="&lt;font color=&quot;#40427d&quot;&gt;FK1&lt;/font&gt;" style="shape=partialRectangle;connectable=0;fillColor=none;top=0;left=0;bottom=0;right=0;fontStyle=1;overflow=hidden;html=1;whiteSpace=wrap;strokeColor=#40427D;" vertex="1" parent="w_6Gt5Wecr9yxxaRGXFA-249">
          <mxGeometry width="60" height="30" as="geometry">
            <mxRectangle width="60" height="30" as="alternateBounds" />
          </mxGeometry>
        </mxCell>
        <mxCell id="w_6Gt5Wecr9yxxaRGXFA-251" value="&lt;font color=&quot;#40427d&quot;&gt;NúmeroNivel: int&lt;/font&gt;" style="shape=partialRectangle;connectable=0;fillColor=none;top=0;left=0;bottom=0;right=0;align=left;spacingLeft=6;fontStyle=1;overflow=hidden;html=1;whiteSpace=wrap;strokeColor=#40427D;" vertex="1" parent="w_6Gt5Wecr9yxxaRGXFA-249">
          <mxGeometry x="60" width="160" height="30" as="geometry">
            <mxRectangle width="160" height="30" as="alternateBounds" />
          </mxGeometry>
        </mxCell>
        <mxCell id="w_6Gt5Wecr9yxxaRGXFA-252" value="" style="shape=tableRow;horizontal=0;startSize=0;swimlaneHead=0;swimlaneBody=0;fillColor=none;collapsible=0;dropTarget=0;points=[[0,0.5],[1,0.5]];portConstraint=eastwest;top=0;left=0;right=0;bottom=1;html=1;strokeColor=#40427D;" vertex="1" parent="w_6Gt5Wecr9yxxaRGXFA-248">
          <mxGeometry y="60" width="220" height="30" as="geometry" />
        </mxCell>
        <mxCell id="w_6Gt5Wecr9yxxaRGXFA-253" value="&lt;font color=&quot;#40427d&quot;&gt;FK2&lt;/font&gt;" style="shape=partialRectangle;connectable=0;fillColor=none;top=0;left=0;bottom=0;right=0;fontStyle=1;overflow=hidden;html=1;whiteSpace=wrap;strokeColor=#40427D;" vertex="1" parent="w_6Gt5Wecr9yxxaRGXFA-252">
          <mxGeometry width="60" height="30" as="geometry">
            <mxRectangle width="60" height="30" as="alternateBounds" />
          </mxGeometry>
        </mxCell>
        <mxCell id="w_6Gt5Wecr9yxxaRGXFA-254" value="&lt;font color=&quot;#40427d&quot;&gt;IdImperial: int&lt;/font&gt;" style="shape=partialRectangle;connectable=0;fillColor=none;top=0;left=0;bottom=0;right=0;align=left;spacingLeft=6;fontStyle=1;overflow=hidden;html=1;whiteSpace=wrap;strokeColor=#40427D;" vertex="1" parent="w_6Gt5Wecr9yxxaRGXFA-252">
          <mxGeometry x="60" width="160" height="30" as="geometry">
            <mxRectangle width="160" height="30" as="alternateBounds" />
          </mxGeometry>
        </mxCell>
        <mxCell id="w_6Gt5Wecr9yxxaRGXFA-255" value="&lt;font color=&quot;#40427d&quot;&gt;Asignar&lt;/font&gt;" style="shape=table;startSize=30;container=1;collapsible=1;childLayout=tableLayout;fixedRows=1;rowLines=0;fontStyle=1;align=center;resizeLast=1;html=1;whiteSpace=wrap;fillColor=#ADB3FF;strokeColor=#40427D;" vertex="1" parent="1">
          <mxGeometry x="-70" y="590" width="220" height="90" as="geometry">
            <mxRectangle x="580" y="370" width="80" height="30" as="alternateBounds" />
          </mxGeometry>
        </mxCell>
        <mxCell id="w_6Gt5Wecr9yxxaRGXFA-256" value="" style="shape=tableRow;horizontal=0;startSize=0;swimlaneHead=0;swimlaneBody=0;fillColor=none;collapsible=0;dropTarget=0;points=[[0,0.5],[1,0.5]];portConstraint=eastwest;top=0;left=0;right=0;bottom=0;html=1;strokeColor=#40427D;" vertex="1" parent="w_6Gt5Wecr9yxxaRGXFA-255">
          <mxGeometry y="30" width="220" height="30" as="geometry" />
        </mxCell>
        <mxCell id="w_6Gt5Wecr9yxxaRGXFA-257" value="&lt;font color=&quot;#40427d&quot;&gt;FK1&lt;/font&gt;" style="shape=partialRectangle;connectable=0;fillColor=none;top=0;left=0;bottom=0;right=0;fontStyle=1;overflow=hidden;html=1;whiteSpace=wrap;strokeColor=#40427D;" vertex="1" parent="w_6Gt5Wecr9yxxaRGXFA-256">
          <mxGeometry width="60" height="30" as="geometry">
            <mxRectangle width="60" height="30" as="alternateBounds" />
          </mxGeometry>
        </mxCell>
        <mxCell id="w_6Gt5Wecr9yxxaRGXFA-258" value="&lt;font color=&quot;#40427d&quot;&gt;NúmeroNave: int&lt;/font&gt;" style="shape=partialRectangle;connectable=0;fillColor=none;top=0;left=0;bottom=0;right=0;align=left;spacingLeft=6;fontStyle=1;overflow=hidden;html=1;whiteSpace=wrap;strokeColor=#40427D;" vertex="1" parent="w_6Gt5Wecr9yxxaRGXFA-256">
          <mxGeometry x="60" width="160" height="30" as="geometry">
            <mxRectangle width="160" height="30" as="alternateBounds" />
          </mxGeometry>
        </mxCell>
        <mxCell id="w_6Gt5Wecr9yxxaRGXFA-259" value="" style="shape=tableRow;horizontal=0;startSize=0;swimlaneHead=0;swimlaneBody=0;fillColor=none;collapsible=0;dropTarget=0;points=[[0,0.5],[1,0.5]];portConstraint=eastwest;top=0;left=0;right=0;bottom=1;html=1;strokeColor=#40427D;" vertex="1" parent="w_6Gt5Wecr9yxxaRGXFA-255">
          <mxGeometry y="60" width="220" height="30" as="geometry" />
        </mxCell>
        <mxCell id="w_6Gt5Wecr9yxxaRGXFA-260" value="&lt;font color=&quot;#40427d&quot;&gt;FK2&lt;/font&gt;" style="shape=partialRectangle;connectable=0;fillColor=none;top=0;left=0;bottom=0;right=0;fontStyle=1;overflow=hidden;html=1;whiteSpace=wrap;strokeColor=#40427D;" vertex="1" parent="w_6Gt5Wecr9yxxaRGXFA-259">
          <mxGeometry width="60" height="30" as="geometry">
            <mxRectangle width="60" height="30" as="alternateBounds" />
          </mxGeometry>
        </mxCell>
        <mxCell id="w_6Gt5Wecr9yxxaRGXFA-261" value="&lt;font color=&quot;#40427d&quot;&gt;IdImperial: int&lt;/font&gt;" style="shape=partialRectangle;connectable=0;fillColor=none;top=0;left=0;bottom=0;right=0;align=left;spacingLeft=6;fontStyle=1;overflow=hidden;html=1;whiteSpace=wrap;strokeColor=#40427D;" vertex="1" parent="w_6Gt5Wecr9yxxaRGXFA-259">
          <mxGeometry x="60" width="160" height="30" as="geometry">
            <mxRectangle width="160" height="30" as="alternateBounds" />
          </mxGeometry>
        </mxCell>
        <mxCell id="w_6Gt5Wecr9yxxaRGXFA-262" value="&lt;font color=&quot;#40427d&quot;&gt;Alojar&lt;/font&gt;" style="shape=table;startSize=30;container=1;collapsible=1;childLayout=tableLayout;fixedRows=1;rowLines=0;fontStyle=1;align=center;resizeLast=1;html=1;whiteSpace=wrap;fillColor=#ADB3FF;strokeColor=#40427D;" vertex="1" parent="1">
          <mxGeometry x="180" y="590" width="180" height="150" as="geometry" />
        </mxCell>
        <mxCell id="w_6Gt5Wecr9yxxaRGXFA-263" value="" style="shape=tableRow;horizontal=0;startSize=0;swimlaneHead=0;swimlaneBody=0;fillColor=none;collapsible=0;dropTarget=0;points=[[0,0.5],[1,0.5]];portConstraint=eastwest;top=0;left=0;right=0;bottom=0;html=1;strokeColor=#40427D;" vertex="1" parent="w_6Gt5Wecr9yxxaRGXFA-262">
          <mxGeometry y="30" width="180" height="30" as="geometry" />
        </mxCell>
        <mxCell id="w_6Gt5Wecr9yxxaRGXFA-264" value="&lt;font color=&quot;#40427d&quot;&gt;FK1&lt;/font&gt;" style="shape=partialRectangle;connectable=0;fillColor=none;top=0;left=0;bottom=0;right=0;fontStyle=1;overflow=hidden;html=1;whiteSpace=wrap;strokeColor=#40427D;" vertex="1" parent="w_6Gt5Wecr9yxxaRGXFA-263">
          <mxGeometry width="60" height="30" as="geometry">
            <mxRectangle width="60" height="30" as="alternateBounds" />
          </mxGeometry>
        </mxCell>
        <mxCell id="w_6Gt5Wecr9yxxaRGXFA-265" value="&lt;font color=&quot;#40427d&quot;&gt;NúmeroNivel: int&lt;/font&gt;" style="shape=partialRectangle;connectable=0;fillColor=none;top=0;left=0;bottom=0;right=0;align=left;spacingLeft=6;fontStyle=1;overflow=hidden;html=1;whiteSpace=wrap;strokeColor=#40427D;" vertex="1" parent="w_6Gt5Wecr9yxxaRGXFA-263">
          <mxGeometry x="60" width="120" height="30" as="geometry">
            <mxRectangle width="120" height="30" as="alternateBounds" />
          </mxGeometry>
        </mxCell>
        <mxCell id="w_6Gt5Wecr9yxxaRGXFA-266" value="" style="shape=tableRow;horizontal=0;startSize=0;swimlaneHead=0;swimlaneBody=0;fillColor=none;collapsible=0;dropTarget=0;points=[[0,0.5],[1,0.5]];portConstraint=eastwest;top=0;left=0;right=0;bottom=1;html=1;strokeColor=#40427D;" vertex="1" parent="w_6Gt5Wecr9yxxaRGXFA-262">
          <mxGeometry y="60" width="180" height="30" as="geometry" />
        </mxCell>
        <mxCell id="w_6Gt5Wecr9yxxaRGXFA-267" value="&lt;font color=&quot;#40427d&quot;&gt;FK2&lt;/font&gt;" style="shape=partialRectangle;connectable=0;fillColor=none;top=0;left=0;bottom=0;right=0;fontStyle=1;overflow=hidden;html=1;whiteSpace=wrap;strokeColor=#40427D;" vertex="1" parent="w_6Gt5Wecr9yxxaRGXFA-266">
          <mxGeometry width="60" height="30" as="geometry">
            <mxRectangle width="60" height="30" as="alternateBounds" />
          </mxGeometry>
        </mxCell>
        <mxCell id="w_6Gt5Wecr9yxxaRGXFA-268" value="&lt;font color=&quot;#40427d&quot;&gt;NúmeroNave: int&lt;/font&gt;" style="shape=partialRectangle;connectable=0;fillColor=none;top=0;left=0;bottom=0;right=0;align=left;spacingLeft=6;fontStyle=1;overflow=hidden;html=1;whiteSpace=wrap;strokeColor=#40427D;" vertex="1" parent="w_6Gt5Wecr9yxxaRGXFA-266">
          <mxGeometry x="60" width="120" height="30" as="geometry">
            <mxRectangle width="120" height="30" as="alternateBounds" />
          </mxGeometry>
        </mxCell>
        <mxCell id="w_6Gt5Wecr9yxxaRGXFA-272" value="" style="shape=tableRow;horizontal=0;startSize=0;swimlaneHead=0;swimlaneBody=0;fillColor=none;collapsible=0;dropTarget=0;points=[[0,0.5],[1,0.5]];portConstraint=eastwest;top=0;left=0;right=0;bottom=0;html=1;strokeColor=#40427D;" vertex="1" parent="w_6Gt5Wecr9yxxaRGXFA-262">
          <mxGeometry y="90" width="180" height="30" as="geometry" />
        </mxCell>
        <mxCell id="w_6Gt5Wecr9yxxaRGXFA-273" value="" style="shape=partialRectangle;connectable=0;fillColor=none;top=0;left=0;bottom=0;right=0;editable=1;overflow=hidden;html=1;whiteSpace=wrap;strokeColor=#40427D;" vertex="1" parent="w_6Gt5Wecr9yxxaRGXFA-272">
          <mxGeometry width="60" height="30" as="geometry">
            <mxRectangle width="60" height="30" as="alternateBounds" />
          </mxGeometry>
        </mxCell>
        <mxCell id="w_6Gt5Wecr9yxxaRGXFA-274" value="&lt;font color=&quot;#40427d&quot;&gt;FechaFin: date&lt;/font&gt;" style="shape=partialRectangle;connectable=0;fillColor=none;top=0;left=0;bottom=0;right=0;align=left;spacingLeft=6;overflow=hidden;html=1;whiteSpace=wrap;strokeColor=#40427D;" vertex="1" parent="w_6Gt5Wecr9yxxaRGXFA-272">
          <mxGeometry x="60" width="120" height="30" as="geometry">
            <mxRectangle width="120" height="30" as="alternateBounds" />
          </mxGeometry>
        </mxCell>
        <mxCell id="3x5gjy6lcyFIxWjUmBrE-1" value="" style="shape=tableRow;horizontal=0;startSize=0;swimlaneHead=0;swimlaneBody=0;fillColor=none;collapsible=0;dropTarget=0;points=[[0,0.5],[1,0.5]];portConstraint=eastwest;top=0;left=0;right=0;bottom=0;html=1;strokeColor=#40427D;" vertex="1" parent="w_6Gt5Wecr9yxxaRGXFA-262">
          <mxGeometry y="120" width="180" height="30" as="geometry" />
        </mxCell>
        <mxCell id="3x5gjy6lcyFIxWjUmBrE-2" value="" style="shape=partialRectangle;connectable=0;fillColor=none;top=0;left=0;bottom=0;right=0;editable=1;overflow=hidden;html=1;whiteSpace=wrap;strokeColor=#40427D;" vertex="1" parent="3x5gjy6lcyFIxWjUmBrE-1">
          <mxGeometry width="60" height="30" as="geometry">
            <mxRectangle width="60" height="30" as="alternateBounds" />
          </mxGeometry>
        </mxCell>
        <mxCell id="3x5gjy6lcyFIxWjUmBrE-3" value="&lt;font color=&quot;#40427d&quot;&gt;FechaInicio: date&lt;/font&gt;" style="shape=partialRectangle;connectable=0;fillColor=none;top=0;left=0;bottom=0;right=0;align=left;spacingLeft=6;overflow=hidden;html=1;whiteSpace=wrap;strokeColor=#40427D;" vertex="1" parent="3x5gjy6lcyFIxWjUmBrE-1">
          <mxGeometry x="60" width="120" height="30" as="geometry">
            <mxRectangle width="120" height="30" as="alternateBounds" />
          </mxGeometry>
        </mxCell>
        <mxCell id="w_6Gt5Wecr9yxxaRGXFA-291" value="&lt;font color=&quot;#40427d&quot;&gt;Ingresar&lt;/font&gt;" style="shape=table;startSize=30;container=1;collapsible=1;childLayout=tableLayout;fixedRows=1;rowLines=0;fontStyle=1;align=center;resizeLast=1;html=1;whiteSpace=wrap;fillColor=#ADB3FF;strokeColor=#40427D;" vertex="1" parent="1">
          <mxGeometry x="410" y="200" width="180" height="180" as="geometry" />
        </mxCell>
        <mxCell id="w_6Gt5Wecr9yxxaRGXFA-292" value="" style="shape=tableRow;horizontal=0;startSize=0;swimlaneHead=0;swimlaneBody=0;fillColor=none;collapsible=0;dropTarget=0;points=[[0,0.5],[1,0.5]];portConstraint=eastwest;top=0;left=0;right=0;bottom=0;html=1;strokeColor=#40427D;" vertex="1" parent="w_6Gt5Wecr9yxxaRGXFA-291">
          <mxGeometry y="30" width="180" height="30" as="geometry" />
        </mxCell>
        <mxCell id="w_6Gt5Wecr9yxxaRGXFA-293" value="&lt;font color=&quot;#40427d&quot;&gt;FK1&lt;/font&gt;" style="shape=partialRectangle;connectable=0;fillColor=none;top=0;left=0;bottom=0;right=0;fontStyle=1;overflow=hidden;html=1;whiteSpace=wrap;strokeColor=#40427D;" vertex="1" parent="w_6Gt5Wecr9yxxaRGXFA-292">
          <mxGeometry width="60" height="30" as="geometry">
            <mxRectangle width="60" height="30" as="alternateBounds" />
          </mxGeometry>
        </mxCell>
        <mxCell id="w_6Gt5Wecr9yxxaRGXFA-294" value="&lt;font color=&quot;#40427d&quot;&gt;NúmeroNivel: int&lt;/font&gt;" style="shape=partialRectangle;connectable=0;fillColor=none;top=0;left=0;bottom=0;right=0;align=left;spacingLeft=6;fontStyle=5;overflow=hidden;html=1;whiteSpace=wrap;strokeColor=#40427D;" vertex="1" parent="w_6Gt5Wecr9yxxaRGXFA-292">
          <mxGeometry x="60" width="120" height="30" as="geometry">
            <mxRectangle width="120" height="30" as="alternateBounds" />
          </mxGeometry>
        </mxCell>
        <mxCell id="w_6Gt5Wecr9yxxaRGXFA-310" value="" style="shape=tableRow;horizontal=0;startSize=0;swimlaneHead=0;swimlaneBody=0;fillColor=none;collapsible=0;dropTarget=0;points=[[0,0.5],[1,0.5]];portConstraint=eastwest;top=0;left=0;right=0;bottom=0;html=1;strokeColor=#40427D;" vertex="1" parent="w_6Gt5Wecr9yxxaRGXFA-291">
          <mxGeometry y="60" width="180" height="30" as="geometry" />
        </mxCell>
        <mxCell id="w_6Gt5Wecr9yxxaRGXFA-311" value="&lt;font color=&quot;#40427d&quot;&gt;FK2&lt;/font&gt;" style="shape=partialRectangle;connectable=0;fillColor=none;top=0;left=0;bottom=0;right=0;fontStyle=1;overflow=hidden;html=1;whiteSpace=wrap;strokeColor=#40427D;" vertex="1" parent="w_6Gt5Wecr9yxxaRGXFA-310">
          <mxGeometry width="60" height="30" as="geometry">
            <mxRectangle width="60" height="30" as="alternateBounds" />
          </mxGeometry>
        </mxCell>
        <mxCell id="w_6Gt5Wecr9yxxaRGXFA-312" value="&lt;font color=&quot;#40427d&quot;&gt;Letra: char(1)&lt;/font&gt;" style="shape=partialRectangle;connectable=0;fillColor=none;top=0;left=0;bottom=0;right=0;align=left;spacingLeft=6;fontStyle=5;overflow=hidden;html=1;whiteSpace=wrap;strokeColor=#40427D;" vertex="1" parent="w_6Gt5Wecr9yxxaRGXFA-310">
          <mxGeometry x="60" width="120" height="30" as="geometry">
            <mxRectangle width="120" height="30" as="alternateBounds" />
          </mxGeometry>
        </mxCell>
        <mxCell id="w_6Gt5Wecr9yxxaRGXFA-295" value="" style="shape=tableRow;horizontal=0;startSize=0;swimlaneHead=0;swimlaneBody=0;fillColor=none;collapsible=0;dropTarget=0;points=[[0,0.5],[1,0.5]];portConstraint=eastwest;top=0;left=0;right=0;bottom=1;html=1;strokeColor=#40427D;" vertex="1" parent="w_6Gt5Wecr9yxxaRGXFA-291">
          <mxGeometry y="90" width="180" height="30" as="geometry" />
        </mxCell>
        <mxCell id="w_6Gt5Wecr9yxxaRGXFA-296" value="&lt;font color=&quot;#40427d&quot;&gt;FK3&lt;/font&gt;" style="shape=partialRectangle;connectable=0;fillColor=none;top=0;left=0;bottom=0;right=0;fontStyle=1;overflow=hidden;html=1;whiteSpace=wrap;strokeColor=#40427D;" vertex="1" parent="w_6Gt5Wecr9yxxaRGXFA-295">
          <mxGeometry width="60" height="30" as="geometry">
            <mxRectangle width="60" height="30" as="alternateBounds" />
          </mxGeometry>
        </mxCell>
        <mxCell id="w_6Gt5Wecr9yxxaRGXFA-297" value="&lt;font color=&quot;#40427d&quot;&gt;IdPrisionero: int&lt;/font&gt;" style="shape=partialRectangle;connectable=0;fillColor=none;top=0;left=0;bottom=0;right=0;align=left;spacingLeft=6;fontStyle=5;overflow=hidden;html=1;whiteSpace=wrap;strokeColor=#40427D;" vertex="1" parent="w_6Gt5Wecr9yxxaRGXFA-295">
          <mxGeometry x="60" width="120" height="30" as="geometry">
            <mxRectangle width="120" height="30" as="alternateBounds" />
          </mxGeometry>
        </mxCell>
        <mxCell id="w_6Gt5Wecr9yxxaRGXFA-298" value="" style="shape=tableRow;horizontal=0;startSize=0;swimlaneHead=0;swimlaneBody=0;fillColor=none;collapsible=0;dropTarget=0;points=[[0,0.5],[1,0.5]];portConstraint=eastwest;top=0;left=0;right=0;bottom=0;html=1;strokeColor=#40427D;" vertex="1" parent="w_6Gt5Wecr9yxxaRGXFA-291">
          <mxGeometry y="120" width="180" height="30" as="geometry" />
        </mxCell>
        <mxCell id="w_6Gt5Wecr9yxxaRGXFA-299" value="" style="shape=partialRectangle;connectable=0;fillColor=none;top=0;left=0;bottom=0;right=0;editable=1;overflow=hidden;html=1;whiteSpace=wrap;strokeColor=#40427D;" vertex="1" parent="w_6Gt5Wecr9yxxaRGXFA-298">
          <mxGeometry width="60" height="30" as="geometry">
            <mxRectangle width="60" height="30" as="alternateBounds" />
          </mxGeometry>
        </mxCell>
        <mxCell id="w_6Gt5Wecr9yxxaRGXFA-300" value="&lt;font color=&quot;#40427d&quot;&gt;FechaInicio: date&lt;/font&gt;" style="shape=partialRectangle;connectable=0;fillColor=none;top=0;left=0;bottom=0;right=0;align=left;spacingLeft=6;overflow=hidden;html=1;whiteSpace=wrap;strokeColor=#40427D;" vertex="1" parent="w_6Gt5Wecr9yxxaRGXFA-298">
          <mxGeometry x="60" width="120" height="30" as="geometry">
            <mxRectangle width="120" height="30" as="alternateBounds" />
          </mxGeometry>
        </mxCell>
        <mxCell id="3x5gjy6lcyFIxWjUmBrE-23" value="" style="shape=tableRow;horizontal=0;startSize=0;swimlaneHead=0;swimlaneBody=0;fillColor=none;collapsible=0;dropTarget=0;points=[[0,0.5],[1,0.5]];portConstraint=eastwest;top=0;left=0;right=0;bottom=0;html=1;strokeColor=#40427D;" vertex="1" parent="w_6Gt5Wecr9yxxaRGXFA-291">
          <mxGeometry y="150" width="180" height="30" as="geometry" />
        </mxCell>
        <mxCell id="3x5gjy6lcyFIxWjUmBrE-24" value="" style="shape=partialRectangle;connectable=0;fillColor=none;top=0;left=0;bottom=0;right=0;editable=1;overflow=hidden;html=1;whiteSpace=wrap;strokeColor=#40427D;" vertex="1" parent="3x5gjy6lcyFIxWjUmBrE-23">
          <mxGeometry width="60" height="30" as="geometry">
            <mxRectangle width="60" height="30" as="alternateBounds" />
          </mxGeometry>
        </mxCell>
        <mxCell id="3x5gjy6lcyFIxWjUmBrE-25" value="&lt;font color=&quot;#40427d&quot;&gt;FechaFin: date&lt;/font&gt;" style="shape=partialRectangle;connectable=0;fillColor=none;top=0;left=0;bottom=0;right=0;align=left;spacingLeft=6;overflow=hidden;html=1;whiteSpace=wrap;strokeColor=#40427D;" vertex="1" parent="3x5gjy6lcyFIxWjUmBrE-23">
          <mxGeometry x="60" width="120" height="30" as="geometry">
            <mxRectangle width="120" height="30" as="alternateBounds" />
          </mxGeometry>
        </mxCell>
        <mxCell id="3x5gjy6lcyFIxWjUmBrE-26" value="" style="edgeStyle=entityRelationEdgeStyle;fontSize=12;html=1;endArrow=ERoneToMany;startArrow=ERzeroToOne;rounded=0;entryX=1;entryY=0.5;entryDx=0;entryDy=0;exitX=0;exitY=0.5;exitDx=0;exitDy=0;strokeColor=#40427D;" edge="1" parent="1" source="w_6Gt5Wecr9yxxaRGXFA-188" target="w_6Gt5Wecr9yxxaRGXFA-140">
          <mxGeometry width="100" height="100" relative="1" as="geometry">
            <mxPoint x="-170" y="730" as="sourcePoint" />
            <mxPoint x="-70" y="630" as="targetPoint" />
            <Array as="points">
              <mxPoint x="-100" y="370" />
              <mxPoint x="-110" y="650" />
              <mxPoint x="-100" y="400" />
              <mxPoint x="-140" y="560" />
              <mxPoint x="-110" y="710" />
              <mxPoint x="-110" y="560" />
              <mxPoint x="-120" y="530" />
              <mxPoint x="-120" y="670" />
              <mxPoint x="-120" y="550" />
            </Array>
          </mxGeometry>
        </mxCell>
        <mxCell id="3x5gjy6lcyFIxWjUmBrE-28" value="" style="edgeStyle=entityRelationEdgeStyle;fontSize=12;html=1;endArrow=ERmandOne;startArrow=ERmandOne;rounded=0;entryX=0;entryY=0.5;entryDx=0;entryDy=0;exitX=1;exitY=0.5;exitDx=0;exitDy=0;strokeColor=#40427D;" edge="1" parent="1" source="bLUASHjlOhzQG__wXpjE-1" target="w_6Gt5Wecr9yxxaRGXFA-122">
          <mxGeometry width="100" height="100" relative="1" as="geometry">
            <mxPoint x="-380" y="440" as="sourcePoint" />
            <mxPoint x="-70" y="640" as="targetPoint" />
            <Array as="points">
              <mxPoint x="-360" y="420" />
              <mxPoint x="-350" y="420" />
            </Array>
          </mxGeometry>
        </mxCell>
        <mxCell id="3x5gjy6lcyFIxWjUmBrE-29" value="" style="edgeStyle=entityRelationEdgeStyle;fontSize=12;html=1;endArrow=ERmandOne;startArrow=ERmandOne;rounded=0;exitX=1;exitY=0.5;exitDx=0;exitDy=0;entryX=0;entryY=0.5;entryDx=0;entryDy=0;strokeColor=#40427D;" edge="1" parent="1" source="w_6Gt5Wecr9yxxaRGXFA-160" target="w_6Gt5Wecr9yxxaRGXFA-122">
          <mxGeometry width="100" height="100" relative="1" as="geometry">
            <mxPoint x="-370" y="450" as="sourcePoint" />
            <mxPoint x="-330" y="470" as="targetPoint" />
          </mxGeometry>
        </mxCell>
        <mxCell id="3x5gjy6lcyFIxWjUmBrE-30" value="" style="edgeStyle=entityRelationEdgeStyle;fontSize=12;html=1;endArrow=ERmandOne;startArrow=ERmandOne;rounded=0;exitX=1;exitY=0.5;exitDx=0;exitDy=0;entryX=0;entryY=0.5;entryDx=0;entryDy=0;strokeColor=#40427D;" edge="1" parent="1" source="w_6Gt5Wecr9yxxaRGXFA-167" target="w_6Gt5Wecr9yxxaRGXFA-122">
          <mxGeometry width="100" height="100" relative="1" as="geometry">
            <mxPoint x="-370" y="575" as="sourcePoint" />
            <mxPoint x="-300" y="455" as="targetPoint" />
          </mxGeometry>
        </mxCell>
        <mxCell id="3x5gjy6lcyFIxWjUmBrE-31" value="" style="edgeStyle=entityRelationEdgeStyle;fontSize=12;html=1;endArrow=ERmandOne;startArrow=ERmandOne;rounded=0;exitX=1;exitY=0.5;exitDx=0;exitDy=0;entryX=0;entryY=0.5;entryDx=0;entryDy=0;strokeColor=#40427D;" edge="1" parent="1" source="w_6Gt5Wecr9yxxaRGXFA-174" target="w_6Gt5Wecr9yxxaRGXFA-122">
          <mxGeometry width="100" height="100" relative="1" as="geometry">
            <mxPoint x="-360" y="585" as="sourcePoint" />
            <mxPoint x="-290" y="465" as="targetPoint" />
          </mxGeometry>
        </mxCell>
        <mxCell id="3x5gjy6lcyFIxWjUmBrE-32" value="" style="edgeStyle=entityRelationEdgeStyle;fontSize=12;html=1;endArrow=ERmandOne;startArrow=ERmandOne;rounded=0;exitX=1;exitY=0.5;exitDx=0;exitDy=0;entryX=0;entryY=0.5;entryDx=0;entryDy=0;strokeColor=#40427D;" edge="1" parent="1" source="w_6Gt5Wecr9yxxaRGXFA-181" target="w_6Gt5Wecr9yxxaRGXFA-122">
          <mxGeometry width="100" height="100" relative="1" as="geometry">
            <mxPoint x="-350" y="595" as="sourcePoint" />
            <mxPoint x="-280" y="475" as="targetPoint" />
          </mxGeometry>
        </mxCell>
        <mxCell id="3x5gjy6lcyFIxWjUmBrE-33" value="" style="fontSize=12;html=1;endArrow=ERoneToMany;startArrow=ERzeroToOne;rounded=0;entryX=0;entryY=0.5;entryDx=0;entryDy=0;edgeStyle=orthogonalEdgeStyle;exitX=1;exitY=0.5;exitDx=0;exitDy=0;strokeColor=#40427D;" edge="1" parent="1" source="w_6Gt5Wecr9yxxaRGXFA-122" target="w_6Gt5Wecr9yxxaRGXFA-252">
          <mxGeometry width="100" height="100" relative="1" as="geometry">
            <mxPoint x="-119" y="463" as="sourcePoint" />
            <mxPoint x="-120" y="605" as="targetPoint" />
            <Array as="points">
              <mxPoint x="-110" y="445" />
              <mxPoint x="-110" y="475" />
            </Array>
          </mxGeometry>
        </mxCell>
        <mxCell id="3x5gjy6lcyFIxWjUmBrE-34" value="" style="fontSize=12;html=1;endArrow=ERoneToMany;startArrow=ERzeroToOne;rounded=0;entryX=1;entryY=0.5;entryDx=0;entryDy=0;edgeStyle=elbowEdgeStyle;exitX=0;exitY=0.5;exitDx=0;exitDy=0;strokeColor=#40427D;" edge="1" parent="1" source="w_6Gt5Wecr9yxxaRGXFA-99" target="w_6Gt5Wecr9yxxaRGXFA-249">
          <mxGeometry width="100" height="100" relative="1" as="geometry">
            <mxPoint x="-120" y="455" as="sourcePoint" />
            <mxPoint x="-60" y="485" as="targetPoint" />
            <Array as="points">
              <mxPoint x="160" y="450" />
            </Array>
          </mxGeometry>
        </mxCell>
        <mxCell id="3x5gjy6lcyFIxWjUmBrE-35" value="" style="fontSize=12;html=1;endArrow=ERoneToMany;startArrow=ERzeroToOne;rounded=0;entryX=0;entryY=0.5;entryDx=0;entryDy=0;edgeStyle=elbowEdgeStyle;exitX=1;exitY=0.5;exitDx=0;exitDy=0;strokeColor=#40427D;" edge="1" parent="1" source="w_6Gt5Wecr9yxxaRGXFA-122" target="w_6Gt5Wecr9yxxaRGXFA-259">
          <mxGeometry width="100" height="100" relative="1" as="geometry">
            <mxPoint x="-129" y="433" as="sourcePoint" />
            <mxPoint x="-60" y="485" as="targetPoint" />
            <Array as="points">
              <mxPoint x="-90" y="550" />
            </Array>
          </mxGeometry>
        </mxCell>
        <mxCell id="3x5gjy6lcyFIxWjUmBrE-36" value="" style="edgeStyle=elbowEdgeStyle;fontSize=12;html=1;endArrow=ERoneToMany;startArrow=ERmandOne;rounded=0;entryX=1;entryY=0.5;entryDx=0;entryDy=0;exitX=1;exitY=0.5;exitDx=0;exitDy=0;strokeColor=#40427D;endFill=0;" edge="1" parent="1" source="w_6Gt5Wecr9yxxaRGXFA-28" target="w_6Gt5Wecr9yxxaRGXFA-256">
          <mxGeometry width="100" height="100" relative="1" as="geometry">
            <mxPoint x="10" y="640" as="sourcePoint" />
            <mxPoint x="110" y="540" as="targetPoint" />
            <Array as="points">
              <mxPoint x="160" y="740" />
              <mxPoint x="160" y="740" />
            </Array>
          </mxGeometry>
        </mxCell>
        <mxCell id="3x5gjy6lcyFIxWjUmBrE-37" value="" style="edgeStyle=elbowEdgeStyle;fontSize=12;html=1;endArrow=ERoneToMany;startArrow=ERmandOne;rounded=0;entryX=1;entryY=0.5;entryDx=0;entryDy=0;exitX=0;exitY=0.5;exitDx=0;exitDy=0;strokeColor=#40427D;endFill=0;" edge="1" parent="1" source="w_6Gt5Wecr9yxxaRGXFA-63" target="w_6Gt5Wecr9yxxaRGXFA-256">
          <mxGeometry width="100" height="100" relative="1" as="geometry">
            <mxPoint x="120" y="845" as="sourcePoint" />
            <mxPoint x="160" y="645" as="targetPoint" />
            <Array as="points">
              <mxPoint x="160" y="740" />
            </Array>
          </mxGeometry>
        </mxCell>
        <mxCell id="3x5gjy6lcyFIxWjUmBrE-38" value="" style="edgeStyle=orthogonalEdgeStyle;fontSize=12;html=1;endArrow=ERoneToMany;startArrow=ERmandOne;rounded=0;entryX=1;entryY=0.5;entryDx=0;entryDy=0;exitX=0;exitY=0.5;exitDx=0;exitDy=0;strokeColor=#40427D;endFill=0;" edge="1" parent="1" source="w_6Gt5Wecr9yxxaRGXFA-86" target="w_6Gt5Wecr9yxxaRGXFA-256">
          <mxGeometry width="100" height="100" relative="1" as="geometry">
            <mxPoint x="190" y="845" as="sourcePoint" />
            <mxPoint x="160" y="645" as="targetPoint" />
            <Array as="points">
              <mxPoint x="400" y="835" />
              <mxPoint x="400" y="770" />
              <mxPoint x="160" y="770" />
              <mxPoint x="160" y="635" />
            </Array>
          </mxGeometry>
        </mxCell>
        <mxCell id="3x5gjy6lcyFIxWjUmBrE-39" value="" style="fontSize=12;html=1;endArrow=ERoneToMany;startArrow=ERzeroToOne;rounded=0;entryX=1;entryY=0.5;entryDx=0;entryDy=0;edgeStyle=elbowEdgeStyle;strokeColor=#40427D;exitX=0;exitY=0.5;exitDx=0;exitDy=0;" edge="1" parent="1" source="w_6Gt5Wecr9yxxaRGXFA-99" target="w_6Gt5Wecr9yxxaRGXFA-197">
          <mxGeometry width="100" height="100" relative="1" as="geometry">
            <mxPoint x="170" y="360" as="sourcePoint" />
            <mxPoint x="-120" y="605" as="targetPoint" />
            <Array as="points">
              <mxPoint x="170" y="370" />
            </Array>
          </mxGeometry>
        </mxCell>
        <mxCell id="3x5gjy6lcyFIxWjUmBrE-27" value="" style="fontSize=12;html=1;endArrow=ERoneToMany;startArrow=ERzeroToOne;rounded=0;edgeStyle=elbowEdgeStyle;strokeColor=#40427D;exitX=1;exitY=0.5;exitDx=0;exitDy=0;entryX=0;entryY=0.5;entryDx=0;entryDy=0;" edge="1" parent="1" source="w_6Gt5Wecr9yxxaRGXFA-150" target="w_6Gt5Wecr9yxxaRGXFA-137">
          <mxGeometry width="100" height="100" relative="1" as="geometry">
            <mxPoint x="-400" y="360" as="sourcePoint" />
            <mxPoint x="-390" y="380" as="targetPoint" />
            <Array as="points">
              <mxPoint x="-330" y="530" />
            </Array>
          </mxGeometry>
        </mxCell>
        <mxCell id="bLUASHjlOhzQG__wXpjE-4" value="" style="edgeStyle=orthogonalEdgeStyle;fontSize=12;html=1;endArrow=ERoneToMany;startArrow=ERzeroToOne;rounded=0;strokeColor=#40427D;exitX=1;exitY=0.5;exitDx=0;exitDy=0;entryX=1;entryY=0.5;entryDx=0;entryDy=0;" edge="1" parent="1" source="w_6Gt5Wecr9yxxaRGXFA-99" target="w_6Gt5Wecr9yxxaRGXFA-263">
          <mxGeometry width="100" height="100" relative="1" as="geometry">
            <mxPoint x="410" y="610" as="sourcePoint" />
            <mxPoint x="440" y="660" as="targetPoint" />
            <Array as="points">
              <mxPoint x="380" y="445" />
              <mxPoint x="380" y="635" />
            </Array>
          </mxGeometry>
        </mxCell>
        <mxCell id="bLUASHjlOhzQG__wXpjE-5" value="" style="edgeStyle=elbowEdgeStyle;fontSize=12;html=1;endArrow=ERoneToMany;startArrow=ERmandOne;rounded=0;entryX=1;entryY=0.5;entryDx=0;entryDy=0;strokeColor=#40427D;exitX=0;exitY=0.5;exitDx=0;exitDy=0;endFill=0;" edge="1" parent="1" source="w_6Gt5Wecr9yxxaRGXFA-86" target="w_6Gt5Wecr9yxxaRGXFA-266">
          <mxGeometry width="100" height="100" relative="1" as="geometry">
            <mxPoint x="430" y="750" as="sourcePoint" />
            <mxPoint x="160" y="645" as="targetPoint" />
            <Array as="points">
              <mxPoint x="400" y="750" />
            </Array>
          </mxGeometry>
        </mxCell>
        <mxCell id="bLUASHjlOhzQG__wXpjE-6" value="" style="edgeStyle=elbowEdgeStyle;fontSize=12;html=1;endArrow=ERoneToMany;startArrow=ERmandOne;rounded=0;entryX=1;entryY=0.5;entryDx=0;entryDy=0;strokeColor=#40427D;exitX=1;exitY=0.5;exitDx=0;exitDy=0;endFill=0;" edge="1" parent="1" source="w_6Gt5Wecr9yxxaRGXFA-63" target="w_6Gt5Wecr9yxxaRGXFA-266">
          <mxGeometry width="100" height="100" relative="1" as="geometry">
            <mxPoint x="430" y="845" as="sourcePoint" />
            <mxPoint x="370" y="675" as="targetPoint" />
            <Array as="points">
              <mxPoint x="400" y="750" />
            </Array>
          </mxGeometry>
        </mxCell>
        <mxCell id="bLUASHjlOhzQG__wXpjE-7" value="" style="edgeStyle=orthogonalEdgeStyle;fontSize=12;html=1;endArrow=ERoneToMany;startArrow=ERmandOne;rounded=0;entryX=1;entryY=0.5;entryDx=0;entryDy=0;strokeColor=#40427D;exitX=1;exitY=0.5;exitDx=0;exitDy=0;endFill=0;" edge="1" parent="1" source="w_6Gt5Wecr9yxxaRGXFA-28" target="w_6Gt5Wecr9yxxaRGXFA-266">
          <mxGeometry width="100" height="100" relative="1" as="geometry">
            <mxPoint x="370" y="845" as="sourcePoint" />
            <mxPoint x="370" y="675" as="targetPoint" />
            <Array as="points">
              <mxPoint x="160" y="835" />
              <mxPoint x="160" y="770" />
              <mxPoint x="400" y="770" />
              <mxPoint x="400" y="665" />
            </Array>
          </mxGeometry>
        </mxCell>
        <mxCell id="bLUASHjlOhzQG__wXpjE-8" value="" style="edgeStyle=orthogonalEdgeStyle;fontSize=12;html=1;endArrow=ERoneToMany;startArrow=ERzeroToOne;rounded=0;strokeColor=#40427D;exitX=1;exitY=0.5;exitDx=0;exitDy=0;entryX=1;entryY=0.5;entryDx=0;entryDy=0;" edge="1" parent="1" source="w_6Gt5Wecr9yxxaRGXFA-99" target="w_6Gt5Wecr9yxxaRGXFA-236">
          <mxGeometry width="100" height="100" relative="1" as="geometry">
            <mxPoint x="370" y="455" as="sourcePoint" />
            <mxPoint x="370" y="645" as="targetPoint" />
            <Array as="points">
              <mxPoint x="390" y="445" />
              <mxPoint x="390" y="245" />
            </Array>
          </mxGeometry>
        </mxCell>
        <mxCell id="bLUASHjlOhzQG__wXpjE-9" value="" style="edgeStyle=orthogonalEdgeStyle;fontSize=12;html=1;endArrow=ERoneToMany;startArrow=ERzeroToOne;rounded=0;strokeColor=#40427D;entryX=0;entryY=0.5;entryDx=0;entryDy=0;" edge="1" parent="1" target="w_6Gt5Wecr9yxxaRGXFA-292">
          <mxGeometry width="100" height="100" relative="1" as="geometry">
            <mxPoint x="360" y="234" as="sourcePoint" />
            <mxPoint x="370" y="255" as="targetPoint" />
          </mxGeometry>
        </mxCell>
        <mxCell id="bLUASHjlOhzQG__wXpjE-10" value="" style="edgeStyle=orthogonalEdgeStyle;fontSize=12;html=1;endArrow=ERoneToMany;startArrow=ERzeroToOne;rounded=0;strokeColor=#40427D;entryX=0;entryY=0.5;entryDx=0;entryDy=0;exitX=1;exitY=0.5;exitDx=0;exitDy=0;" edge="1" parent="1" source="w_6Gt5Wecr9yxxaRGXFA-239" target="w_6Gt5Wecr9yxxaRGXFA-310">
          <mxGeometry width="100" height="100" relative="1" as="geometry">
            <mxPoint x="370" y="244" as="sourcePoint" />
            <mxPoint x="420" y="255" as="targetPoint" />
          </mxGeometry>
        </mxCell>
        <mxCell id="bLUASHjlOhzQG__wXpjE-11" value="" style="edgeStyle=orthogonalEdgeStyle;fontSize=12;html=1;endArrow=ERoneToMany;startArrow=ERmandOne;rounded=0;entryX=1;entryY=0.5;entryDx=0;entryDy=0;exitX=0;exitY=0.5;exitDx=0;exitDy=0;" edge="1" parent="1" source="w_6Gt5Wecr9yxxaRGXFA-201" target="w_6Gt5Wecr9yxxaRGXFA-295">
          <mxGeometry width="100" height="100" relative="1" as="geometry">
            <mxPoint x="620" y="390" as="sourcePoint" />
            <mxPoint x="720" y="290" as="targetPoint" />
          </mxGeometry>
        </mxCell>
        <mxCell id="bLUASHjlOhzQG__wXpjE-12" value="" style="edgeStyle=orthogonalEdgeStyle;fontSize=12;html=1;endArrow=ERoneToMany;startArrow=ERzeroToOne;rounded=0;strokeColor=#40427D;exitX=1;exitY=0.5;exitDx=0;exitDy=0;entryX=0;entryY=0.5;entryDx=0;entryDy=0;" edge="1" parent="1" source="w_6Gt5Wecr9yxxaRGXFA-99" target="w_6Gt5Wecr9yxxaRGXFA-115">
          <mxGeometry width="100" height="100" relative="1" as="geometry">
            <mxPoint x="370" y="455" as="sourcePoint" />
            <mxPoint x="370" y="645" as="targetPoint" />
          </mxGeometry>
        </mxCell>
        <mxCell id="bLUASHjlOhzQG__wXpjE-13" value="" style="edgeStyle=orthogonalEdgeStyle;fontSize=12;html=1;endArrow=ERoneToMany;startArrow=ERzeroToOne;rounded=0;strokeColor=#40427D;exitX=1;exitY=0.787;exitDx=0;exitDy=0;entryX=0;entryY=0.5;entryDx=0;entryDy=0;exitPerimeter=0;" edge="1" parent="1" source="w_6Gt5Wecr9yxxaRGXFA-28" target="w_6Gt5Wecr9yxxaRGXFA-2">
          <mxGeometry width="100" height="100" relative="1" as="geometry">
            <mxPoint x="110.00000000000001" y="850" as="sourcePoint" />
            <mxPoint x="150.00000000000003" y="940" as="targetPoint" />
          </mxGeometry>
        </mxCell>
        <mxCell id="bLUASHjlOhzQG__wXpjE-14" value="" style="edgeStyle=orthogonalEdgeStyle;fontSize=12;html=1;endArrow=ERoneToMany;startArrow=ERzeroToOne;rounded=0;strokeColor=#40427D;exitX=0.999;exitY=0.88;exitDx=0;exitDy=0;entryX=1;entryY=0.5;entryDx=0;entryDy=0;exitPerimeter=0;" edge="1" parent="1" source="w_6Gt5Wecr9yxxaRGXFA-63" target="w_6Gt5Wecr9yxxaRGXFA-2">
          <mxGeometry width="100" height="100" relative="1" as="geometry">
            <mxPoint x="359.48" y="850" as="sourcePoint" />
            <mxPoint x="409.48" y="1041" as="targetPoint" />
            <Array as="points">
              <mxPoint x="400" y="846" />
              <mxPoint x="400" y="1035" />
            </Array>
          </mxGeometry>
        </mxCell>
        <mxCell id="bLUASHjlOhzQG__wXpjE-15" value="" style="edgeStyle=orthogonalEdgeStyle;fontSize=12;html=1;endArrow=ERoneToMany;startArrow=ERzeroToOne;rounded=0;strokeColor=#40427D;exitX=-0.002;exitY=0.88;exitDx=0;exitDy=0;entryX=1;entryY=0.5;entryDx=0;entryDy=0;exitPerimeter=0;" edge="1" parent="1" source="w_6Gt5Wecr9yxxaRGXFA-86" target="w_6Gt5Wecr9yxxaRGXFA-2">
          <mxGeometry width="100" height="100" relative="1" as="geometry">
            <mxPoint x="370" y="856" as="sourcePoint" />
            <mxPoint x="390" y="1045" as="targetPoint" />
          </mxGeometry>
        </mxCell>
      </root>
    </mxGraphModel>
  </diagram>
</mxfile>
